<svg width="50" height="50" viewBox="0 0 50 50" fill="none" xmlns="http://www.w3.org/2000/svg">
<path d="M27.233 1.23106C30.331 1.48906 33.3255 2.34955 36.0795 3.72655C40.107 5.75755 43.1015 8.45956 45.5975 12.2631C47.3875 14.9826 48.6095 18.0631 49.212 21.4021C49.6075 23.5536 49.59 27.7876 49.1945 29.8701C47.542 38.4926 41.7765 45.4806 33.808 48.4751C32.5 48.9741 31.9835 48.9916 31.536 48.5441C31.226 48.2341 31.192 47.9761 31.192 45.9106V43.6386H33.378C35.271 43.6386 35.7015 43.5871 36.39 43.2601C37.7495 42.6406 38.662 41.6426 39.5225 39.8521C40.28 38.2686 41.2435 37.0811 42.431 36.2376C43.6185 35.3941 42.689 34.7401 41.0025 35.2221C40.2625 35.4461 39.8495 35.7041 39.1095 36.4786C38.593 37.0121 37.8875 37.8211 37.5605 38.2856C37.182 38.8191 36.614 39.3181 36.0115 39.6626C35.1855 40.1271 34.91 40.1961 33.774 40.1791C33.0685 40.1616 32.1905 40.0411 31.829 39.9211C31.2265 39.6971 31.1405 39.5596 30.7965 38.5441C30.59 37.9416 30.2455 37.2016 30.022 36.9261L29.626 36.4271L31.399 36.0486C34.583 35.3771 36.39 34.4481 38.025 32.6406C39.7115 30.7991 40.6585 27.9251 40.6585 24.6206C40.6585 22.0391 40.1595 20.3866 38.817 18.5621L38.232 17.7531L38.4385 16.7031C38.8 14.8271 38.301 11.5051 37.6125 11.2471C36.8895 10.9716 33.964 12.0386 32.002 13.2951L31.193 13.8116L29.5925 13.5016C27.3895 13.0541 22.622 13.0371 20.419 13.4846L18.8525 13.8116L17.338 12.9336C15.6515 11.9696 14.1025 11.4016 12.9665 11.3331L12.192 11.2816L11.865 12.1421C11.4345 13.2436 11.2795 15.6876 11.5725 16.8406L11.779 17.7186L11.0045 18.8891C9.6275 20.9886 9.421 21.7461 9.421 24.7066C9.438 26.8751 9.49 27.5121 9.817 28.6651C10.781 32.0211 12.829 34.2071 16.082 35.3946C16.495 35.5496 17.614 35.8421 18.5945 36.0486L20.3675 36.4271L19.989 36.8916C19.7825 37.1671 19.4555 37.7866 19.266 38.2686C18.922 39.0776 18.8875 39.5766 18.8355 43.6386C18.801 46.6336 18.715 48.1826 18.5775 48.3371C17.992 49.0601 17.1835 48.9226 14.395 47.5971C11.039 46.0311 7.5795 43.1911 5.2905 40.1276C3.1565 37.3051 1.435 33.3121 0.7985 29.7836C0.4025 27.5976 0.4025 23.7081 0.7985 21.5221C1.7965 15.9971 4.8775 10.6101 9.077 7.08206C14.187 2.74556 20.693 0.646057 27.233 1.23106Z" fill="#BBB4CC"/>
</svg>
