<svg width="560" height="302" viewBox="0 0 560 302" fill="none" xmlns="http://www.w3.org/2000/svg">
<g clip-path="url(#clip0)">
<path opacity="0.1" d="M560 193.841C560.007 202.045 558.878 210.211 556.647 218.106C554.49 225.717 551.317 233.004 547.214 239.768C547.214 264.278 530.659 285.461 506.629 295.538C496.587 299.707 485.816 301.836 474.943 301.8H106.307C86.6042 301.8 68.3454 296.488 53.3713 287.437C49.0858 284.859 45.0205 281.932 41.2168 278.685C24.5734 264.39 14.2545 244.636 14.2545 222.817C4.91376 208.443 -0.0391482 191.662 -1.40154e-05 174.522C-1.40154e-05 138.634 21.2398 107.774 51.6678 94.1497C55.7083 92.3414 59.8834 90.8497 64.1552 89.6881C65.6662 89.2771 67.1934 88.9086 68.737 88.5825C72.8519 87.7067 77.0256 87.1344 81.2244 86.8702C82.7419 86.7756 84.2676 86.7218 85.8014 86.7088H86.6433C88.337 86.7088 90.0161 86.7675 91.6853 86.8653L92.2335 85.9358C92.9058 84.8139 93.5944 83.7034 94.2993 82.6043C95.572 80.6018 96.9067 78.6286 98.3035 76.6848C99.7655 74.6334 101.291 72.6146 102.88 70.6284L103.287 70.1392C104.187 69.0173 105.108 67.9084 106.048 66.8125C108.985 63.3913 112.085 60.0728 115.348 56.8571C150.647 22.2796 205.947 0.0205078 268.115 0.0205078C316.488 0.0205078 360.706 13.4983 394.575 35.7672C407.406 28.5105 421.9 24.7028 436.643 24.7159C484.488 24.7159 523.287 64.0338 523.287 112.534C523.279 115.603 523.116 118.669 522.797 121.722C534.33 129.881 543.731 140.692 550.205 153.244C556.68 165.796 560.039 179.72 560 193.841Z" fill="#1FFF87"/>
<path opacity="0.2" d="M115.358 56.8366V66.7921H106.057C108.972 63.3741 112.072 60.0556 115.358 56.8366Z" fill="#1FFF87"/>
<path opacity="0.2" d="M132.427 54.3123H119.94V66.792H132.427V54.3123Z" fill="#1FFF87"/>
<path opacity="0.2" d="M149.492 54.3123H137.004V66.792H149.492V54.3123Z" fill="#1FFF87"/>
<path opacity="0.2" d="M166.561 54.3123H154.073V66.792H166.561V54.3123Z" fill="#1FFF87"/>
<path opacity="0.2" d="M183.625 54.3123H171.138V66.792H183.625V54.3123Z" fill="#1FFF87"/>
<path opacity="0.2" d="M200.694 54.3123H188.207V66.792H200.694V54.3123Z" fill="#1FFF87"/>
<path d="M217.764 54.3123H205.276V66.792H217.764V54.3123Z" fill="#1FFF87"/>
<path opacity="0.2" d="M234.828 54.3123H222.341V66.792H234.828V54.3123Z" fill="#1FFF87"/>
<path opacity="0.2" d="M251.897 54.3123H239.41V66.792H251.897V54.3123Z" fill="#1FFF87"/>
<path opacity="0.2" d="M268.962 54.3123H256.474V66.792H268.962V54.3123Z" fill="#1FFF87"/>
<path d="M286.031 54.3123H273.543V66.792H286.031V54.3123Z" fill="#1FFF87"/>
<path opacity="0.2" d="M303.1 54.3123H290.613V66.792H303.1V54.3123Z" fill="#1FFF87"/>
<path opacity="0.2" d="M320.164 54.3123H307.677V66.792H320.164V54.3123Z" fill="#1FFF87"/>
<path opacity="0.2" d="M337.234 54.3123H324.746V66.792H337.234V54.3123Z" fill="#1FFF87"/>
<path opacity="0.2" d="M354.303 54.3123H341.815V66.792H354.303V54.3123Z" fill="#1FFF87"/>
<path opacity="0.2" d="M371.367 54.3123H358.88V66.792H371.367V54.3123Z" fill="#1FFF87"/>
<path opacity="0.2" d="M388.436 54.3123H375.949V66.792H388.436V54.3123Z" fill="#1FFF87"/>
<path d="M405.501 54.3123H393.013V66.792H405.501V54.3123Z" fill="#1FFF87"/>
<path d="M422.57 54.3123H410.083V66.792H422.57V54.3123Z" fill="#1FFF87"/>
<path opacity="0.2" d="M439.639 54.3123H427.152V66.792H439.639V54.3123Z" fill="#1FFF87"/>
<path opacity="0.2" d="M456.703 54.3123H444.216V66.792H456.703V54.3123Z" fill="#1FFF87"/>
<path d="M473.773 54.3123H461.285V66.792H473.773V54.3123Z" fill="#1FFF87"/>
<path d="M490.837 54.3123H478.35V66.792H490.837V54.3123Z" fill="#1FFF87"/>
<path d="M98.2937 76.679V82.5985H94.2895C95.5622 80.5829 96.897 78.6098 98.2937 76.679Z" fill="#1FFF87"/>
<path opacity="0.2" d="M115.358 70.1187H102.871V82.5984H115.358V70.1187Z" fill="#1FFF87"/>
<path d="M132.427 70.1187H119.94V82.5984H132.427V70.1187Z" fill="#1FFF87"/>
<path opacity="0.2" d="M149.492 70.1187H137.004V82.5984H149.492V70.1187Z" fill="#1FFF87"/>
<path opacity="0.7" d="M166.561 70.1187H154.073V82.5984H166.561V70.1187Z" fill="#1FFF87"/>
<path opacity="0.2" d="M183.625 70.1187H171.138V82.5984H183.625V70.1187Z" fill="#1FFF87"/>
<path opacity="0.4" d="M200.694 70.1187H188.207V82.5984H200.694V70.1187Z" fill="#1FFF87"/>
<path d="M217.764 70.1187H205.276V82.5984H217.764V70.1187Z" fill="#1FFF87"/>
<path opacity="0.4" d="M234.828 70.1187H222.341V82.5984H234.828V70.1187Z" fill="#1FFF87"/>
<path opacity="0.2" d="M251.897 70.1187H239.41V82.5984H251.897V70.1187Z" fill="#1FFF87"/>
<path opacity="0.4" d="M268.962 70.1187H256.474V82.5984H268.962V70.1187Z" fill="#1FFF87"/>
<path d="M286.031 70.1187H273.543V82.5984H286.031V70.1187Z" fill="#1FFF87"/>
<path opacity="0.4" d="M303.1 70.1187H290.613V82.5984H303.1V70.1187Z" fill="#1FFF87"/>
<path opacity="0.4" d="M320.164 70.1187H307.677V82.5984H320.164V70.1187Z" fill="#1FFF87"/>
<path opacity="0.2" d="M337.234 70.1187H324.746V82.5984H337.234V70.1187Z" fill="#1FFF87"/>
<path opacity="0.4" d="M354.303 70.1187H341.815V82.5984H354.303V70.1187Z" fill="#1FFF87"/>
<path opacity="0.4" d="M371.367 70.1187H358.88V82.5984H371.367V70.1187Z" fill="#1FFF87"/>
<path opacity="0.2" d="M388.436 70.1187H375.949V82.5984H388.436V70.1187Z" fill="#1FFF87"/>
<path opacity="0.2" d="M405.501 70.1187H393.013V82.5984H405.501V70.1187Z" fill="#1FFF87"/>
<path opacity="0.4" d="M422.57 70.1187H410.083V82.5984H422.57V70.1187Z" fill="#1FFF87"/>
<path opacity="0.2" d="M439.639 70.1187H427.152V82.5984H439.639V70.1187Z" fill="#1FFF87"/>
<path d="M456.703 70.1187H444.216V82.5984H456.703V70.1187Z" fill="#1FFF87"/>
<path d="M473.773 70.1187H461.285V82.5984H473.773V70.1187Z" fill="#1FFF87"/>
<path d="M490.837 70.1187H478.35V82.5984H490.837V70.1187Z" fill="#1FFF87"/>
<path opacity="0.2" d="M64.1553 89.6871V98.4098H51.6678V94.1487C55.7084 92.3404 59.8834 90.8487 64.1553 89.6871Z" fill="#1FFF87"/>
<path opacity="0.2" d="M81.2245 86.8693V98.4098H68.7371V88.5815L81.2245 86.8693Z" fill="#1FFF87"/>
<path d="M98.2888 85.93H85.8014V98.4098H98.2888V85.93Z" fill="#1FFF87"/>
<path opacity="0.7" d="M115.358 85.93H102.871V98.4098H115.358V85.93Z" fill="#1FFF87"/>
<path d="M132.427 85.93H119.94V98.4098H132.427V85.93Z" fill="#1FFF87"/>
<path opacity="0.7" d="M149.492 85.93H137.004V98.4098H149.492V85.93Z" fill="#1FFF87"/>
<path opacity="0.7" d="M166.561 85.93H154.073V98.4098H166.561V85.93Z" fill="#1FFF87"/>
<path opacity="0.2" d="M183.625 85.93H171.138V98.4098H183.625V85.93Z" fill="#1FFF87"/>
<path opacity="0.4" d="M200.694 85.93H188.207V98.4098H200.694V85.93Z" fill="#1FFF87"/>
<path opacity="0.4" d="M217.764 85.93H205.276V98.4098H217.764V85.93Z" fill="#1FFF87"/>
<path d="M234.828 85.93H222.341V98.4098H234.828V85.93Z" fill="#1FFF87"/>
<path opacity="0.2" d="M251.897 85.93H239.41V98.4098H251.897V85.93Z" fill="#1FFF87"/>
<path opacity="0.4" d="M268.962 85.93H256.474V98.4098H268.962V85.93Z" fill="#1FFF87"/>
<path d="M286.031 85.93H273.543V98.4098H286.031V85.93Z" fill="#1FFF87"/>
<path opacity="0.2" d="M303.1 85.93H290.613V98.4098H303.1V85.93Z" fill="#1FFF87"/>
<path opacity="0.4" d="M320.164 85.93H307.677V98.4098H320.164V85.93Z" fill="#1FFF87"/>
<path opacity="0.2" d="M337.234 85.93H324.746V98.4098H337.234V85.93Z" fill="#1FFF87"/>
<path d="M354.303 85.93H341.815V98.4098H354.303V85.93Z" fill="#1FFF87"/>
<path opacity="0.2" d="M371.367 85.93H358.88V98.4098H371.367V85.93Z" fill="#1FFF87"/>
<path opacity="0.7" d="M388.436 85.93H375.949V98.4098H388.436V85.93Z" fill="#1FFF87"/>
<path opacity="0.7" d="M405.501 85.93H393.013V98.4098H405.501V85.93Z" fill="#1FFF87"/>
<path opacity="0.4" d="M422.57 85.93H410.083V98.4098H422.57V85.93Z" fill="#1FFF87"/>
<path opacity="0.2" d="M439.639 85.93H427.152V98.4098H439.639V85.93Z" fill="#1FFF87"/>
<path d="M456.703 85.93H444.216V98.4098H456.703V85.93Z" fill="#1FFF87"/>
<path d="M473.773 85.93H461.285V98.4098H473.773V85.93Z" fill="#1FFF87"/>
<path d="M490.837 85.93H478.35V98.4098H490.837V85.93Z" fill="#1FFF87"/>
<path opacity="0.2" d="M64.1553 101.736H51.6678V114.216H64.1553V101.736Z" fill="#1FFF87"/>
<path opacity="0.2" d="M81.2245 101.736H68.7371V114.216H81.2245V101.736Z" fill="#1FFF87"/>
<path opacity="0.2" d="M98.2888 101.736H85.8014V114.216H98.2888V101.736Z" fill="#1FFF87"/>
<path opacity="0.2" d="M115.358 101.736H102.871V114.216H115.358V101.736Z" fill="#1FFF87"/>
<path d="M132.427 101.736H119.94V114.216H132.427V101.736Z" fill="#1FFF87"/>
<path opacity="0.7" d="M149.492 101.736H137.004V114.216H149.492V101.736Z" fill="#1FFF87"/>
<path opacity="0.7" d="M166.561 101.736H154.073V114.216H166.561V101.736Z" fill="#1FFF87"/>
<path opacity="0.2" d="M183.625 101.736H171.138V114.216H183.625V101.736Z" fill="#1FFF87"/>
<path opacity="0.2" d="M200.694 101.736H188.207V114.216H200.694V101.736Z" fill="#1FFF87"/>
<path opacity="0.4" d="M217.764 101.736H205.276V114.216H217.764V101.736Z" fill="#1FFF87"/>
<path opacity="0.4" d="M234.828 101.736H222.341V114.216H234.828V101.736Z" fill="#1FFF87"/>
<path d="M251.897 101.736H239.41V114.216H251.897V101.736Z" fill="#1FFF87"/>
<path opacity="0.2" d="M268.962 101.736H256.474V114.216H268.962V101.736Z" fill="#1FFF87"/>
<path opacity="0.4" d="M286.031 101.736H273.543V114.216H286.031V101.736Z" fill="#1FFF87"/>
<path opacity="0.4" d="M303.1 101.736H290.613V114.216H303.1V101.736Z" fill="#1FFF87"/>
<path opacity="0.4" d="M320.164 101.736H307.677V114.216H320.164V101.736Z" fill="#1FFF87"/>
<path opacity="0.4" d="M337.234 101.736H324.746V114.216H337.234V101.736Z" fill="#1FFF87"/>
<path opacity="0.2" d="M354.303 101.736H341.815V114.216H354.303V101.736Z" fill="#1FFF87"/>
<path opacity="0.2" d="M371.367 101.736H358.88V114.216H371.367V101.736Z" fill="#1FFF87"/>
<path opacity="0.2" d="M388.436 101.736H375.949V114.216H388.436V101.736Z" fill="#1FFF87"/>
<path opacity="0.2" d="M405.501 101.736H393.013V114.216H405.501V101.736Z" fill="#1FFF87"/>
<path opacity="0.7" d="M422.57 101.736H410.083V114.216H422.57V101.736Z" fill="#1FFF87"/>
<path opacity="0.7" d="M439.639 101.736H427.152V114.216H439.639V101.736Z" fill="#1FFF87"/>
<path opacity="0.4" d="M456.703 101.736H444.216V114.216H456.703V101.736Z" fill="#1FFF87"/>
<path opacity="0.2" d="M473.773 101.736H461.285V114.216H473.773V101.736Z" fill="#1FFF87"/>
<path d="M490.837 101.736H478.35V114.216H490.837V101.736Z" fill="#1FFF87"/>
<path opacity="0.2" d="M64.1553 117.548H51.6678V130.028H64.1553V117.548Z" fill="#1FFF87"/>
<path opacity="0.2" d="M81.2245 117.548H68.7371V130.028H81.2245V117.548Z" fill="#1FFF87"/>
<path opacity="0.4" d="M98.2888 117.548H85.8014V130.028H98.2888V117.548Z" fill="#1FFF87"/>
<path opacity="0.2" d="M115.358 117.548H102.871V130.028H115.358V117.548Z" fill="#1FFF87"/>
<path opacity="0.2" d="M132.427 117.548H119.94V130.028H132.427V117.548Z" fill="#1FFF87"/>
<path opacity="0.7" d="M149.492 117.548H137.004V130.028H149.492V117.548Z" fill="#1FFF87"/>
<path opacity="0.7" d="M166.561 117.548H154.073V130.028H166.561V117.548Z" fill="#1FFF87"/>
<path opacity="0.2" d="M183.625 117.548H171.138V130.028H183.625V117.548Z" fill="#1FFF87"/>
<path opacity="0.2" d="M200.694 117.548H188.207V130.028H200.694V117.548Z" fill="#1FFF87"/>
<path opacity="0.4" d="M217.764 117.548H205.276V130.028H217.764V117.548Z" fill="#1FFF87"/>
<path d="M234.828 117.548H222.341V130.028H234.828V117.548Z" fill="#1FFF87"/>
<path opacity="0.2" d="M251.897 117.548H239.41V130.028H251.897V117.548Z" fill="#1FFF87"/>
<path d="M268.962 117.548H256.474V130.028H268.962V117.548Z" fill="#1FFF87"/>
<path d="M286.031 117.548H273.543V130.028H286.031V117.548Z" fill="#1FFF87"/>
<path d="M303.1 117.548H290.613V130.028H303.1V117.548Z" fill="#1FFF87"/>
<path opacity="0.2" d="M320.164 117.548H307.677V130.028H320.164V117.548Z" fill="#1FFF87"/>
<path d="M337.234 117.548H324.746V130.028H337.234V117.548Z" fill="#1FFF87"/>
<path opacity="0.2" d="M354.303 117.548H341.815V130.028H354.303V117.548Z" fill="#1FFF87"/>
<path opacity="0.2" d="M371.367 117.548H358.88V130.028H371.367V117.548Z" fill="#1FFF87"/>
<path opacity="0.2" d="M388.436 117.548H375.949V130.028H388.436V117.548Z" fill="#1FFF87"/>
<path opacity="0.2" d="M405.501 117.548H393.013V130.028H405.501V117.548Z" fill="#1FFF87"/>
<path opacity="0.2" d="M422.57 117.548H410.083V130.028H422.57V117.548Z" fill="#1FFF87"/>
<path opacity="0.7" d="M439.639 117.548H427.152V130.028H439.639V117.548Z" fill="#1FFF87"/>
<path opacity="0.2" d="M456.703 117.548H444.216V130.028H456.703V117.548Z" fill="#1FFF87"/>
<path opacity="0.2" d="M473.773 117.548H461.285V130.028H473.773V117.548Z" fill="#1FFF87"/>
<path d="M490.837 117.548H478.35V130.028H490.837V117.548Z" fill="#1FFF87"/>
<path opacity="0.2" d="M64.1553 133.354H51.6678V145.834H64.1553V133.354Z" fill="#1FFF87"/>
<path opacity="0.2" d="M81.2245 133.354H68.7371V145.834H81.2245V133.354Z" fill="#1FFF87"/>
<path opacity="0.2" d="M98.2888 133.354H85.8014V145.834H98.2888V133.354Z" fill="#1FFF87"/>
<path opacity="0.4" d="M115.358 133.354H102.871V145.834H115.358V133.354Z" fill="#1FFF87"/>
<path opacity="0.2" d="M132.427 133.354H119.94V145.834H132.427V133.354Z" fill="#1FFF87"/>
<path opacity="0.2" d="M149.492 133.354H137.004V145.834H149.492V133.354Z" fill="#1FFF87"/>
<path opacity="0.7" d="M166.561 133.354H154.073V145.834H166.561V133.354Z" fill="#1FFF87"/>
<path opacity="0.2" d="M183.625 133.354H171.138V145.834H183.625V133.354Z" fill="#1FFF87"/>
<path opacity="0.2" d="M200.694 133.354H188.207V145.834H200.694V133.354Z" fill="#1FFF87"/>
<path opacity="0.2" d="M217.764 133.354H205.276V145.834H217.764V133.354Z" fill="#1FFF87"/>
<path d="M234.828 133.354H222.341V145.834H234.828V133.354Z" fill="#1FFF87"/>
<path opacity="0.2" d="M251.897 133.354H239.41V145.834H251.897V133.354Z" fill="#1FFF87"/>
<path d="M268.962 133.354H256.474V145.834H268.962V133.354Z" fill="#1FFF87"/>
<path d="M286.031 133.354H273.543V145.834H286.031V133.354Z" fill="#1FFF87"/>
<path opacity="0.2" d="M303.1 133.354H290.613V145.834H303.1V133.354Z" fill="#1FFF87"/>
<path opacity="0.2" d="M320.164 133.354H307.677V145.834H320.164V133.354Z" fill="#1FFF87"/>
<path opacity="0.2" d="M337.234 133.354H324.746V145.834H337.234V133.354Z" fill="#1FFF87"/>
<path opacity="0.2" d="M354.303 133.354H341.815V145.834H354.303V133.354Z" fill="#1FFF87"/>
<path opacity="0.2" d="M371.367 133.354H358.88V145.834H371.367V133.354Z" fill="#1FFF87"/>
<path opacity="0.2" d="M388.436 133.354H375.949V145.834H388.436V133.354Z" fill="#1FFF87"/>
<path opacity="0.2" d="M405.501 133.354H393.013V145.834H405.501V133.354Z" fill="#1FFF87"/>
<path opacity="0.2" d="M422.57 133.354H410.083V145.834H422.57V133.354Z" fill="#1FFF87"/>
<path opacity="0.2" d="M439.639 133.354H427.152V145.834H439.639V133.354Z" fill="#1FFF87"/>
<path opacity="0.2" d="M456.703 133.354H444.216V145.834H456.703V133.354Z" fill="#1FFF87"/>
<path opacity="0.4" d="M473.773 133.354H461.285V145.834H473.773V133.354Z" fill="#1FFF87"/>
<path d="M490.837 133.354H478.35V145.834H490.837V133.354Z" fill="#1FFF87"/>
<path opacity="0.7" d="M64.1553 149.165H51.6678V161.645H64.1553V149.165Z" fill="#1FFF87"/>
<path opacity="0.7" d="M81.2245 149.165H68.7371V161.645H81.2245V149.165Z" fill="#1FFF87"/>
<path opacity="0.7" d="M98.2888 149.165H85.8014V161.645H98.2888V149.165Z" fill="#1FFF87"/>
<path opacity="0.7" d="M115.358 149.165H102.871V161.645H115.358V149.165Z" fill="#1FFF87"/>
<path opacity="0.7" d="M132.427 149.165H119.94V161.645H132.427V149.165Z" fill="#1FFF87"/>
<path opacity="0.2" d="M149.492 149.165H137.004V161.645H149.492V149.165Z" fill="#1FFF87"/>
<path opacity="0.2" d="M166.561 149.165H154.073V161.645H166.561V149.165Z" fill="#1FFF87"/>
<path opacity="0.2" d="M183.625 149.165H171.138V161.645H183.625V149.165Z" fill="#1FFF87"/>
<path opacity="0.2" d="M200.694 149.165H188.207V161.645H200.694V149.165Z" fill="#1FFF87"/>
<path opacity="0.2" d="M217.764 149.165H205.276V161.645H217.764V149.165Z" fill="#1FFF87"/>
<path opacity="0.2" d="M234.828 149.165H222.341V161.645H234.828V149.165Z" fill="#1FFF87"/>
<path d="M251.897 149.165H239.41V161.645H251.897V149.165Z" fill="#1FFF87"/>
<path opacity="0.2" d="M268.962 149.165H256.474V161.645H268.962V149.165Z" fill="#1FFF87"/>
<path opacity="0.2" d="M286.031 149.165H273.543V161.645H286.031V149.165Z" fill="#1FFF87"/>
<path opacity="0.2" d="M303.1 149.165H290.613V161.645H303.1V149.165Z" fill="#1FFF87"/>
<path d="M320.164 149.165H307.677V161.645H320.164V149.165Z" fill="#1FFF87"/>
<path opacity="0.2" d="M337.234 149.165H324.746V161.645H337.234V149.165Z" fill="#1FFF87"/>
<path opacity="0.2" d="M354.303 149.165H341.815V161.645H354.303V149.165Z" fill="#1FFF87"/>
<path opacity="0.2" d="M371.367 149.165H358.88V161.645H371.367V149.165Z" fill="#1FFF87"/>
<path opacity="0.2" d="M388.436 149.165H375.949V161.645H388.436V149.165Z" fill="#1FFF87"/>
<path opacity="0.2" d="M405.501 149.165H393.013V161.645H405.501V149.165Z" fill="#1FFF87"/>
<path opacity="0.2" d="M422.57 149.165H410.083V161.645H422.57V149.165Z" fill="#1FFF87"/>
<path opacity="0.2" d="M439.639 149.165H427.152V161.645H439.639V149.165Z" fill="#1FFF87"/>
<path opacity="0.2" d="M456.703 149.165H444.216V161.645H456.703V149.165Z" fill="#1FFF87"/>
<path opacity="0.2" d="M473.773 149.165H461.285V161.645H473.773V149.165Z" fill="#1FFF87"/>
<path d="M490.837 149.165H478.35V161.645H490.837V149.165Z" fill="#1FFF87"/>
<path d="M359.555 195.078C368.982 195.078 376.624 187.44 376.624 178.019C376.624 168.598 368.982 160.96 359.555 160.96C350.128 160.96 342.486 168.598 342.486 178.019C342.486 187.44 350.128 195.078 359.555 195.078Z" fill="#767D9F"/>
<path d="M358.669 156.318C360.373 163.747 361.818 171.232 363.006 178.773C363.364 181.013 363.682 183.376 362.869 185.494C362.189 187.26 360.803 188.64 359.717 190.186C358.63 191.732 357.808 193.713 358.469 195.484C359.129 197.255 361.058 198.224 362.899 198.723C368.166 200.141 373.78 199.109 379.023 197.573C381.397 196.962 383.673 196.02 385.783 194.775C388.006 193.366 389.827 191.409 391.501 189.393C399.142 180.133 404.145 169.018 408.854 157.971C405.828 158.247 402.78 157.798 399.962 156.663C397.144 155.529 394.636 153.74 392.646 151.445C390.717 149.18 389.303 146.025 390.39 143.256C387.203 145.002 383.419 145.12 379.987 146.313C377.859 147.126 375.811 148.133 373.869 149.322C371.525 150.676 369.195 152.055 366.878 153.461C364.23 155.056 361.748 156.474 358.669 156.318Z" fill="#AE6E79"/>
<path d="M394.369 169.125C391.378 174.942 387.487 180.534 381.931 183.997C376.375 187.461 368.895 188.4 363.329 184.976C360.588 183.303 358.513 180.759 356.119 178.616C353.725 176.473 350.734 174.639 347.518 174.918C343.974 175.226 341.199 177.99 338.824 180.636C335.222 184.658 331.741 188.85 329.191 193.61C324.296 202.759 323.136 213.453 323.351 223.824C323.566 234.195 325.069 244.513 325.104 254.884C325.152 267.643 322.989 280.299 320.801 292.866C340.92 290.391 361.063 295.802 381.226 297.852C394.129 299.177 407.131 299.148 420.103 299.114C422.384 299.114 424.812 299.055 426.711 297.793C427.872 296.946 428.811 295.832 429.448 294.544C431.239 291.242 431.959 287.475 432.458 283.752C433.726 274.35 433.765 264.83 433.799 255.339C433.887 232.346 433.971 209.27 431.048 186.458C430.329 180.847 429.408 175.206 427.255 169.957C425.101 164.708 421.586 159.879 416.671 157.066C413.514 155.256 406.196 152.106 402.476 153.93C398.3 155.965 396.371 165.231 394.369 169.125Z" fill="#767D9F"/>
<path d="M395.857 234.053C395.099 219.866 392.01 204.725 398.584 192.133C400.199 189.041 394.403 185.181 396.195 182.187C398.382 178.537 400.039 174.595 401.12 170.48C401.492 169.067 401.79 167.57 401.438 166.151C400.787 163.563 398.227 162.022 396.053 160.447C393.655 158.705 392.421 153.397 391.648 150.525C390.874 147.654 397.801 151.113 400.586 150.09C404.453 148.676 409.368 149.567 413.225 151C415.379 151.793 417.719 151.861 420.015 151.92C424.474 152.037 428.948 152.15 433.373 151.602C435.361 151.352 437.353 150.976 439.35 151.088C444.446 151.377 448.876 154.86 451.892 158.979C454.907 163.098 456.826 167.897 459.298 172.359C461.359 176.077 463.816 179.589 465.573 183.459C467.13 186.884 468.114 190.563 469.088 194.222L471.599 203.61C472.039 204.953 472.247 206.36 472.216 207.773C472.089 209.275 471.423 210.674 470.747 212.01C468.193 216.96 465.13 221.631 461.608 225.947C456.327 232.419 449.914 238.256 446.776 246.005C445.552 249.023 444.872 252.232 444.25 255.432C441.744 268.228 439.962 281.156 438.915 294.153C433.195 291.508 427.199 289.504 421.038 288.18C417.966 287.523 414.862 287.033 411.737 286.712C409.001 286.428 405.471 286.967 402.867 286.223C398.51 284.985 398.031 277.623 397.37 273.768C396.313 267.628 396.102 261.381 396.063 255.178C396.014 248.123 396.234 241.083 395.857 234.053Z" fill="#4C4981"/>
<path d="M300.182 207.523C302.243 219.265 304.515 231.04 308.994 242.072C308.881 242.179 308.768 242.277 308.656 242.375C308.259 242.713 307.848 243.031 307.417 243.353C306.414 244.058 305.313 244.655 304.48 245.574C304.165 245.926 303.917 246.332 303.746 246.773C303.592 247.117 303.513 247.49 303.513 247.866C303.513 248.243 303.592 248.616 303.746 248.96C301.411 249.992 298.699 249.674 296.08 249.576C293.824 249.493 291.636 249.576 289.824 250.814C287.308 252.546 286.55 255.872 286.143 258.896C285.993 259.998 285.864 261.102 285.757 262.208C285.652 263.235 285.567 264.266 285.502 265.299C285.28 268.72 285.249 272.149 285.409 275.573C285.435 276.199 285.469 276.825 285.512 277.451C277.513 277.261 270.224 273.093 263.327 269.042C261.751 268.117 260.126 267.144 259.103 265.617C258.16 264.118 257.761 262.341 257.972 260.583C257.972 260.334 258.016 260.094 258.05 259.84C258.27 258.388 258.645 256.964 259.171 255.593C261.329 249.754 264.51 244.346 268.565 239.621C270.317 237.576 272.29 235.575 273.108 233.007C273.465 231.886 273.597 230.697 273.959 229.582C275.585 224.749 281.449 222.464 283.456 217.772C283.945 216.652 284.171 215.424 284.778 214.348C285.324 213.454 286.029 212.666 286.858 212.024C287.215 211.726 287.587 211.437 287.955 211.149C291.394 208.455 294.708 205.609 297.896 202.612C298.49 202.054 299.078 201.49 299.659 200.919C299.581 203.133 299.757 205.349 300.182 207.523Z" fill="#4C4981"/>
<path d="M349.51 172.799C348.806 173.543 348.042 174.242 347.293 174.937L347.092 175.118L346.299 175.852C344.86 177.093 343.614 178.543 342.603 180.152L342.52 180.289C340.024 184.756 340.949 190.254 341.644 195.327C342.506 201.649 342.894 208.027 342.804 214.407C342.677 223.212 341.639 231.96 341.62 240.756C341.62 242.752 341.664 244.743 341.752 246.739C341.894 249.982 342.138 253.221 342.432 256.459C342.75 260.011 343.132 263.558 343.49 267.105C343.773 269.849 344.043 272.589 344.268 275.328C344.38 276.747 344.488 278.161 344.576 279.579C344.679 281.243 344.762 282.911 344.811 284.574C344.845 285.631 344.865 286.683 344.865 287.739C344.865 288.341 344.865 288.938 344.865 289.535C344.865 290.68 344.834 291.821 344.772 292.959C344.707 294.424 344.607 295.891 344.473 297.362C344.322 298.962 344.052 300.708 342.927 301.834C342.858 301.902 342.785 301.966 342.711 302.029L341.125 301.834C330.192 300.525 319.154 300.329 308.181 301.247C308.421 299.593 308.641 297.944 308.857 296.286C308.955 295.503 309.052 294.716 309.145 293.928C309.253 293.028 309.356 292.128 309.454 291.228C309.566 290.249 309.669 289.271 309.767 288.292C310.022 285.771 310.245 283.248 310.438 280.724C310.722 277.042 310.937 273.353 311.084 269.658C311.156 267.894 311.211 266.128 311.25 264.36C311.306 262.168 311.332 259.975 311.329 257.78C311.329 255.647 311.311 253.511 311.275 251.371C311.275 250.667 311.245 249.963 311.187 249.263C311.145 248.633 311.058 248.007 310.927 247.389C310.564 245.965 310.072 244.577 309.459 243.241C309.351 242.986 309.248 242.752 309.145 242.482C309.087 242.35 309.033 242.213 308.979 242.081C311.799 239.572 313.806 236.211 315.734 232.904C318.862 227.576 322.064 222.014 322.587 215.86C323.111 209.705 320.052 202.793 314.168 200.914C312.567 200.425 310.873 200.288 309.224 199.999C307.667 199.725 304.422 199.104 302.62 197.989C301.641 198.993 300.662 199.98 299.683 200.948C299.743 199.471 300.104 198.02 300.745 196.687L301.441 196.722C301.384 196.565 301.357 196.399 301.362 196.232C301.362 195.709 301.724 195.117 302.498 194.462C304.804 192.505 308.431 192.069 309.885 189.423C310.492 188.322 310.594 187.011 311.084 185.856C312.489 182.564 316.522 181.351 318.95 178.719C321.378 176.087 321.985 172.359 323.948 169.424C325.415 167.28 327.448 165.586 329.822 164.532C330.018 164.439 330.219 164.346 330.42 164.263C334.483 162.526 339.309 162.13 343.519 162.139C345.154 162.139 349.393 162.188 351.469 163.015C351.805 163.135 352.113 163.323 352.374 163.568C354.587 165.975 351.145 171.058 349.51 172.799Z" fill="#4C4981"/>
<path d="M300.912 196.345C304.693 195.207 308.663 194.832 312.591 195.241C316.519 195.65 320.326 196.835 323.792 198.727C327.316 200.684 330.478 203.414 332.417 206.936C335.329 212.22 335.202 218.589 334.997 224.621C334.894 227.64 334.762 230.766 333.43 233.476C331.888 236.612 328.98 238.764 326.014 240.526C324.156 241.711 322.12 242.591 319.983 243.133C316.694 243.847 313.277 243.241 309.963 242.644C306.36 241.979 302.493 241.176 299.992 238.495C298.523 236.94 297.72 234.919 296.927 232.943C295.788 230.089 294.646 227.239 293.501 224.391C291.518 219.446 290.848 215.331 293.466 210.513C294.656 208.316 296.11 206.261 297.285 204.05C297.872 202.925 299.977 196.634 300.912 196.345Z" fill="#4C4981"/>
<path d="M506.643 280.915V295.542C496.602 299.711 485.831 301.84 474.957 301.804H342.941C342.873 301.873 342.799 301.936 342.726 302L341.14 301.804H106.307C86.6042 301.804 68.3455 296.491 53.3713 287.441V265.109L166.311 252.081H166.399L232.17 257.648L249.19 259.116L258.031 259.864L276.329 261.415L285.742 262.212L299.448 263.377L301.377 263.538L311.255 264.375L324.658 265.475L343.504 267.07L374.921 269.736L397.022 271.61L433.315 274.687L440.217 275.269L440.961 275.333L441.607 275.387L450.722 276.16L460.727 277.011L461.887 277.109L506.643 280.915Z" fill="#504F60"/>
<path d="M373.986 280.377L232.449 256.234L226.962 283.968L291.841 291.731L311.818 294.231L366.771 283.415L373.986 280.377Z" fill="#9C9CA1"/>
<path d="M300.721 292.842L371.631 279.521C371.986 279.453 372.352 279.464 372.701 279.554C373.051 279.644 373.377 279.81 373.655 280.041C373.933 280.271 374.156 280.561 374.309 280.888C374.462 281.215 374.541 281.572 374.539 281.933C374.541 282.505 374.341 283.06 373.975 283.501C373.609 283.942 373.1 284.24 372.537 284.344L303.286 297.304L300.721 292.842Z" fill="#9C9CA1"/>
<path d="M331.482 250.951C333.69 250.745 335.927 250.398 337.914 249.42C340.362 248.201 342.266 246.103 344.532 244.557C349.515 241.132 356.183 240.672 361.895 242.639C367.608 244.606 372.376 248.818 375.714 253.847C377.931 257.198 379.596 261.474 378.029 265.172C377.492 266.303 376.814 267.361 376.013 268.323L371.93 273.655C371.155 274.776 370.221 275.779 369.159 276.634C367.632 277.745 365.733 278.2 363.863 278.474C358.894 279.198 353.838 278.787 348.83 279.12C340.229 279.692 331.829 282.461 323.209 282.368C318.255 282.314 313.365 281.316 308.524 280.318L287.098 275.915C283.368 275.152 279.153 274.037 277.396 270.656C276.608 269.135 276.461 267.374 276.368 265.661C276.113 260.945 276.368 255.701 279.638 252.301C282.712 249.111 287.573 248.104 291.244 245.746C295.738 242.854 297.221 243.789 301.959 245.961C311.204 250.145 321.375 251.864 331.482 250.951Z" fill="#AE6E79"/>
<path opacity="0.05" d="M331.482 250.951C333.69 250.745 335.927 250.398 337.914 249.42C340.362 248.201 342.266 246.103 344.532 244.557C349.515 241.132 356.183 240.672 361.895 242.639C367.608 244.606 372.376 248.818 375.714 253.847C377.931 257.198 379.596 261.474 378.029 265.172C377.492 266.303 376.814 267.361 376.013 268.323L371.93 273.655C371.155 274.776 370.221 275.779 369.159 276.634C367.632 277.745 365.733 278.2 363.863 278.474C358.894 279.198 353.838 278.787 348.83 279.12C340.229 279.692 331.829 282.461 323.209 282.368C318.255 282.314 313.365 281.316 308.524 280.318L287.098 275.915C283.368 275.152 279.153 274.037 277.396 270.656C276.608 269.135 276.461 267.374 276.368 265.661C276.113 260.945 276.368 255.701 279.638 252.301C282.712 249.111 287.573 248.104 291.244 245.746C295.738 242.854 297.221 243.789 301.959 245.961C311.204 250.145 321.375 251.864 331.482 250.951Z" fill="black"/>
<path d="M417.523 244.244C411.512 246.567 405.466 248.901 399.171 250.285C388.617 252.609 377.574 252.242 367.104 254.899C361.572 256.308 356.075 258.578 350.392 258.118C347.851 257.912 345.399 257.139 342.927 256.552C329.039 253.128 313.252 254.238 301.974 263.044C298.117 266.053 294.959 269.805 292.096 273.807C291.483 274.671 291.069 275.66 290.883 276.703C290.697 277.746 290.744 278.817 291.02 279.839C291.297 280.862 291.796 281.811 292.482 282.619C293.168 283.426 294.024 284.072 294.989 284.511C299.375 286.526 304.073 287.779 308.881 288.214C315.308 288.781 321.765 287.872 328.158 286.962C337.645 285.616 347.136 284.266 356.599 282.754C359.996 282.211 363.393 281.649 366.81 281.218C391.398 278.112 416.431 281.889 441.083 279.296C443.575 279.032 446.11 278.689 448.377 277.627C454.114 274.937 456.953 267.843 455.769 261.611C454.584 255.378 450.012 250.197 444.51 247.018C439.899 244.342 434.925 243.26 429.79 242.125C425.022 241.015 422.115 242.483 417.523 244.244Z" fill="#AE6E79"/>
<path opacity="0.1" d="M470.258 206.985C472.97 210.537 473.548 215.302 473.254 219.749C472.96 224.196 471.903 228.594 471.746 233.06C471.531 239.185 473.009 245.291 472.759 251.396C472.583 255.667 471.57 259.854 470.371 263.954C468.956 268.792 466.91 273.993 462.441 276.316C456.508 279.403 444.064 277.667 437.823 280.083C438.391 276.546 443.834 271.424 444.402 267.887C444.794 265.441 445.19 262.927 444.769 260.476C444.231 257.35 442.395 254.576 440.217 252.267C436.751 248.593 432.228 245.829 427.259 244.929C422.291 244.028 410.127 244.767 406.152 247.903C405.662 244.664 414.767 241.543 417.969 240.844C419.564 240.487 421.395 240.687 422.673 239.674C425.12 237.757 423.343 233.936 423.461 230.869C423.554 228.423 424.983 226.182 425.272 223.736C425.762 219.822 423.206 215.835 424.21 211.995C424.582 210.576 425.409 209.329 425.982 207.978C427.724 203.845 426.961 199.129 426.031 194.736C425.453 191.976 424.89 188.865 426.427 186.512C427.852 184.315 431.895 192.138 434.485 191.776C443.036 190.577 450.776 184.242 457.683 189.428C461.202 192.069 461.662 194.809 463.067 198.581C464.433 202.172 467.972 204.011 470.258 206.985Z" fill="black"/>
<path d="M471.727 206.985C474.438 210.537 475.016 215.302 474.722 219.749C474.429 224.196 473.371 228.594 473.215 233.06C472.999 239.185 474.478 245.291 474.228 251.396C474.052 255.667 473.038 259.854 471.839 263.954C470.424 268.792 468.378 273.993 463.909 276.316C457.976 279.403 445.533 277.667 439.292 280.083C439.859 276.546 445.303 271.424 445.871 267.887C446.262 265.441 446.659 262.927 446.238 260.476C445.699 257.35 443.864 254.576 441.685 252.267C438.22 248.593 433.697 245.829 428.728 244.929C423.759 244.028 411.595 244.767 407.62 247.903C407.131 244.664 416.236 241.543 419.437 240.844C421.033 240.487 422.864 240.687 424.141 239.674C426.589 237.757 424.812 233.936 424.929 230.869C425.022 228.423 426.452 226.182 426.741 223.736C427.23 219.822 424.675 215.835 425.678 211.995C426.05 210.576 426.878 209.329 427.45 207.978C429.193 203.845 428.429 199.129 427.499 194.736C426.922 191.976 426.359 188.865 427.896 186.512C429.32 184.315 432.106 183.484 434.695 183.117C443.365 181.945 452.15 184.21 459.171 189.428C462.69 192.069 463.15 194.809 464.555 198.581C465.901 202.172 469.441 204.011 471.727 206.985Z" fill="#4C4981"/>
<path d="M147.832 183.807L174.447 282.109C174.773 283.313 175.459 284.389 176.414 285.194C177.368 285.999 178.545 286.495 179.787 286.614L299.58 298.116C300.557 298.21 301.541 298.069 302.452 297.704C303.362 297.34 304.172 296.763 304.814 296.021C305.455 295.279 305.909 294.395 306.138 293.442C306.367 292.489 306.365 291.494 306.13 290.543L276.985 171.968C276.638 170.558 275.802 169.317 274.626 168.465C273.45 167.614 272.01 167.206 270.562 167.315L153.28 176.082C152.38 176.152 151.506 176.419 150.721 176.866C149.936 177.312 149.259 177.926 148.739 178.664C148.218 179.402 147.867 180.245 147.711 181.134C147.554 182.023 147.595 182.935 147.832 183.807Z" fill="#9C9CA1"/>
<path d="M385.299 202.988C392.571 202.988 398.466 197.02 398.466 189.657C398.466 182.295 392.571 176.326 385.299 176.326C378.026 176.326 372.131 182.295 372.131 189.657C372.131 197.02 378.026 202.988 385.299 202.988Z" fill="white"/>
<path d="M396.112 165.339C396.112 165.339 398.887 173.587 390.698 177.055L389.65 178.885L394.78 183.944C394.78 183.944 401.105 172.413 400.42 168.318C400.42 168.318 399.441 164.16 396.112 165.339Z" fill="white"/>
<path d="M386.811 202.988C393.824 202.988 399.509 197.307 399.509 190.298C399.509 183.29 393.824 177.608 386.811 177.608C379.798 177.608 374.113 183.29 374.113 190.298C374.113 197.307 379.798 202.988 386.811 202.988Z" fill="#1FFF87"/>
<path d="M400.483 170.192L398.466 166.865L395.529 166.449C396.156 155.496 393.312 152.233 393.312 152.233L392.651 152.169L389.773 151.89L384.359 146.274V144.679C391.966 145.584 396.171 149.195 398.442 153.426C402.456 160.853 400.483 170.192 400.483 170.192Z" fill="#1FFF87"/>
<path opacity="0.1" d="M392.676 150.154V152.169L389.797 151.89L384.383 146.274C384.383 146.274 392.759 148.148 392.676 150.154Z" fill="black" stroke="#4C4981" stroke-miterlimit="10"/>
<path opacity="0.1" d="M400.483 170.192L398.466 166.865V153.446C402.456 160.853 400.483 170.192 400.483 170.192Z" fill="black" stroke="#4C4981" stroke-miterlimit="10"/>
<path d="M363.347 195.515C366.726 193.566 366.58 186.993 363.023 180.834C359.465 174.676 353.842 171.264 350.463 173.213C347.085 175.162 347.23 181.735 350.788 187.894C354.346 194.052 359.969 197.464 363.347 195.515Z" fill="white"/>
<path d="M358.811 183.288C362.37 189.447 366.736 193.561 363.359 195.518C359.981 197.475 350.142 196.497 346.583 190.333C343.025 184.169 346.255 175.656 349.633 173.699C353.011 171.743 355.248 177.114 358.811 183.288Z" fill="#1FFF87"/>
<path opacity="0.1" d="M390.497 138.916C390.497 158.597 377.021 177.564 357.328 177.564C347.87 177.564 338.8 173.809 332.112 167.126C325.424 160.442 321.667 151.377 321.667 141.925C321.667 132.473 325.424 123.408 332.112 116.724C338.8 110.041 347.87 106.286 357.328 106.286C377.021 106.306 390.497 119.231 390.497 138.916Z" fill="black"/>
<path d="M357.328 176.605C377.023 176.605 392.989 160.649 392.989 140.966C392.989 121.283 377.023 105.327 357.328 105.327C337.633 105.327 321.667 121.283 321.667 140.966C321.667 160.649 337.633 176.605 357.328 176.605Z" fill="#AE6E79"/>
<path d="M354.195 125.175C358.439 126.735 360.95 131.118 364.759 133.56C370.143 136.984 377.153 136.099 383.301 134.406C386.728 133.472 390.311 132.332 393.684 133.369C394.18 133.588 394.727 133.666 395.265 133.594C395.999 133.383 396.362 132.571 396.601 131.847C400.772 119.421 398.897 105.347 392.602 93.8503C390.977 90.8857 389.029 88.0189 386.346 85.9593C384.231 84.34 381.745 83.2785 379.238 82.3734C374.658 80.7294 369.921 79.5606 365.101 78.8853C364.25 78.7308 363.381 78.7028 362.522 78.8022C361.342 78.993 360.285 79.6289 359.232 80.1964C354.725 82.6112 349.726 83.9681 344.615 84.1639C337.762 84.4232 329.93 82.8088 324.648 87.2019C318.285 92.4707 319.871 102.749 315.744 109.901C313.013 114.632 307.745 118.066 306.879 123.452C306.653 125.099 306.758 126.774 307.187 128.379C309.204 136.666 317.232 143.085 325.789 143.236C327.103 143.336 328.419 143.067 329.587 142.458C330.353 141.936 331.029 141.293 331.59 140.555C337.194 133.922 343.607 121.28 354.195 125.175Z" fill="#444053"/>
<path opacity="0.1" d="M396.601 128.242C396.362 128.966 395.999 129.778 395.265 129.988C394.727 130.061 394.18 129.983 393.684 129.763C390.311 128.726 386.708 129.866 383.306 130.8C377.153 132.493 370.129 133.398 364.764 129.954C360.95 127.508 358.444 123.105 354.195 121.569C343.607 117.655 337.194 130.316 331.575 136.95C331.015 137.688 330.338 138.331 329.573 138.853C328.404 139.461 327.088 139.731 325.774 139.631C317.247 139.479 309.214 133.061 307.173 124.773C307.06 124.284 306.962 123.795 306.889 123.306C306.889 123.35 306.889 123.389 306.864 123.433C306.639 125.079 306.744 126.754 307.173 128.359C309.19 136.647 317.222 143.065 325.774 143.217C327.088 143.317 328.404 143.047 329.573 142.439C330.338 141.917 331.015 141.274 331.575 140.536C337.194 133.902 343.607 121.261 354.195 125.155C358.444 126.716 360.95 131.099 364.764 133.54C370.148 136.965 377.153 136.079 383.306 134.386C386.733 133.452 390.311 132.312 393.684 133.349C394.18 133.569 394.727 133.647 395.265 133.574C395.999 133.364 396.362 132.552 396.601 131.828C398.284 126.743 399.027 121.396 398.794 116.046C398.65 120.195 397.912 124.302 396.601 128.242Z" fill="black"/>
</g>
<defs>
<clipPath id="clip0">
<rect width="560" height="302" fill="white"/>
</clipPath>
</defs>
</svg>
