<svg width="59" height="59" viewBox="0 0 59 59" fill="none" xmlns="http://www.w3.org/2000/svg">
<path d="M59 0H0V59H59V0Z" fill="#05CE64"/>
<path d="M19.854 46.5444C20.8841 48.1365 21.727 49.4476 23.6 49.4476C25.3794 49.4476 26.5968 48.6984 26.5968 45.9825V27.1587H32.1222V46.0761C32.1222 51.7888 28.7508 54.4111 23.881 54.4111C19.4794 54.4111 16.8571 52.0698 15.546 49.3539" fill="#202020"/>
<path d="M39.6143 46.0762C40.8318 48.0429 42.3302 49.4477 45.046 49.4477C47.3873 49.4477 48.7921 48.3238 48.7921 46.7318C48.7921 44.8588 47.2937 44.2032 44.7651 43.0794L43.3603 42.5175C39.3333 40.8318 36.7111 38.6778 36.7111 34.1826C36.7111 30.0619 39.8952 26.8778 44.8587 26.8778C48.4175 26.8778 50.946 28.0953 52.7254 31.2794L48.4175 34.0889C47.481 32.4032 46.4508 31.7476 44.8587 31.7476C43.2667 31.7476 42.2365 32.7778 42.2365 34.0889C42.2365 35.7746 43.2667 36.4302 45.6079 37.4603L47.0127 38.0223C51.6952 40.0826 54.4111 42.1429 54.4111 46.7318C54.4111 51.6953 50.4778 54.4111 45.2333 54.4111C40.0825 54.4111 36.7111 51.9762 35.1191 48.7921" fill="#202020"/>
</svg>
