<svg width="79" height="59" viewBox="0 0 79 59" fill="none" xmlns="http://www.w3.org/2000/svg">
<path d="M67.9774 33.9599C65.229 33.9743 62.8403 34.6334 60.8401 35.6078C60.1062 34.1605 59.3723 32.8709 59.2428 31.9252C59.0989 30.8219 58.9262 30.1484 59.0989 28.8301C59.2716 27.5119 60.0486 25.6347 60.0342 25.4915C60.0199 25.3482 59.8616 24.6747 58.2787 24.6604C56.6958 24.646 55.3288 24.9613 55.1705 25.3768C55.0122 25.7924 54.71 26.7381 54.5086 27.7125C54.2352 29.1454 51.3428 34.2609 49.688 36.9404C49.1556 35.8944 48.6951 34.9773 48.5944 34.2465C48.4505 33.1432 48.2778 32.4697 48.4505 31.1514C48.6231 29.8332 49.4002 27.9561 49.3858 27.8128C49.3714 27.6695 49.2131 26.996 47.6302 26.9817C46.0474 26.9673 44.6803 27.2826 44.522 27.6981C44.3638 28.1137 44.1911 29.0881 43.8601 30.0338C43.5291 30.9795 39.6871 39.5196 38.6798 41.7263C38.1617 42.8583 37.7157 43.761 37.3991 44.3772C37.3991 44.3772 37.3847 44.4202 37.3415 44.4918C37.0681 45.022 36.9098 45.3086 36.9098 45.3086C36.9098 45.3086 36.9098 45.3086 36.9098 45.3229C36.694 45.7098 36.4638 46.068 36.3486 46.068C36.2623 46.068 36.104 45.0363 36.3774 43.6321C36.953 40.666 38.32 36.052 38.3056 35.8944C38.3056 35.8084 38.5647 35.006 37.4135 34.5904C36.2911 34.1749 35.8882 34.8627 35.7874 34.8627C35.6867 34.8627 35.6148 35.1063 35.6148 35.1063C35.6148 35.1063 36.8667 29.9191 33.226 29.9191C30.9525 29.9191 27.8155 32.3981 26.2614 34.6334C25.2829 35.1636 23.1964 36.2956 20.9659 37.5136C20.1169 37.9864 19.2392 38.4593 18.4189 38.9035C18.3614 38.8462 18.3038 38.7745 18.2463 38.7172C13.843 34.0316 5.69836 30.7216 6.04371 24.4311C6.17322 22.1384 6.96466 16.1202 21.6854 8.8124C33.8016 2.86583 43.4428 4.51368 45.112 8.16759C47.5007 13.3834 39.9461 23.0698 27.427 24.4741C22.6495 25.0043 20.1457 23.1701 19.5126 22.4823C18.8506 21.7659 18.7499 21.7229 18.5053 21.8662C18.1024 22.0811 18.3614 22.7259 18.5053 23.0985C18.8794 24.0729 20.4191 25.7924 23.0237 26.6378C25.326 27.3829 30.9237 27.7984 37.7013 25.1905C45.2847 22.2674 51.2133 14.1428 49.4721 7.33651C47.731 0.429888 36.2191 -1.84844 25.326 2.00609C18.8506 4.29874 11.8284 7.90967 6.77759 12.6096C0.777045 18.198 -0.172681 23.0555 0.215843 25.0902C1.61165 32.3121 11.6126 37.012 15.6129 40.494C15.4115 40.6086 15.2244 40.7089 15.0661 40.7949C13.0659 41.7836 5.43934 45.7528 3.53989 49.9512C1.38142 54.7085 3.88524 58.1188 5.54007 58.5773C10.6772 59.9959 15.9583 57.4453 18.7931 53.2326C21.6279 49.0198 21.2825 43.5461 19.973 41.0385C19.9587 41.0098 19.9443 40.9812 19.9155 40.9525C20.4335 40.6516 20.9659 40.3364 21.484 40.0355C22.5056 39.4336 23.5129 38.8748 24.3763 38.4163C23.8871 39.7489 23.5273 41.3394 23.3546 43.6321C23.1388 46.3259 24.2468 49.8222 25.7002 51.1978C26.3477 51.7996 27.1104 51.814 27.5996 51.814C29.2976 51.814 30.0603 50.4097 30.9093 48.7476C31.9454 46.7128 32.8807 44.3485 32.8807 44.3485C32.8807 44.3485 31.7151 50.7393 34.8809 50.7393C36.0321 50.7393 37.1976 49.2491 37.7157 48.4896V48.504C37.7157 48.504 37.7444 48.461 37.802 48.3607C37.9171 48.1744 37.9891 48.0598 37.9891 48.0598V48.0311C38.4495 47.2287 39.4856 45.4089 41.0253 42.3854C43.0111 38.4879 44.925 33.616 44.925 33.616C44.925 33.616 45.0976 34.8054 45.6876 36.7828C46.033 37.9434 46.7525 39.2187 47.3281 40.451C46.8676 41.0958 46.5798 41.454 46.5798 41.454C46.5798 41.454 46.5798 41.454 46.5942 41.4684C46.22 41.9556 45.8171 42.4857 45.371 43.0016C43.8026 44.8644 41.9319 46.9994 41.6729 47.6156C41.3707 48.3463 41.4426 48.8765 42.0182 49.3064C42.4355 49.6216 43.1838 49.6646 43.9464 49.6216C45.3566 49.5213 46.3495 49.1774 46.8388 48.9625C47.6015 48.6902 48.4936 48.2747 49.3282 47.6585C50.8679 46.5265 51.8033 44.9074 51.7169 42.7723C51.6738 41.5973 51.2852 40.4224 50.8104 39.319C50.9543 39.1184 51.0838 38.9178 51.2277 38.7172C53.6596 35.1779 55.5446 31.2947 55.5446 31.2947C55.5446 31.2947 55.7173 32.484 56.3073 34.4615C56.5951 35.4645 57.1851 36.5535 57.7031 37.6139C55.4151 39.4623 54.0049 41.6117 53.5013 43.0159C52.5947 45.6238 53.2998 46.7988 54.6381 47.071C55.2424 47.2 56.1058 46.9134 56.739 46.6412C57.5448 46.3833 58.4945 45.9391 59.4011 45.2799C60.9408 44.1479 62.423 42.5717 62.3366 40.4367C62.2934 39.4623 62.0344 38.5023 61.6747 37.5709C63.6173 36.7684 66.1211 36.3242 69.3157 36.6968C76.1652 37.4992 77.5179 41.755 77.2588 43.5461C76.9998 45.3372 75.5608 46.3116 75.086 46.6125C74.6111 46.9134 74.4528 47.0137 74.496 47.2287C74.5536 47.5439 74.7838 47.5296 75.1867 47.4723C75.7479 47.372 78.7842 46.025 78.9137 42.7293C79.1295 38.5166 75.1004 33.917 67.9774 33.9599ZM15.1381 51.6993C12.8645 54.1639 9.69872 55.0953 8.33169 54.3072C6.86393 53.4618 7.43952 49.8222 10.2311 47.2143C11.9291 45.6238 14.1164 44.1479 15.5698 43.2452C15.9007 43.0446 16.39 42.758 16.98 42.3998C17.0807 42.3424 17.1383 42.3138 17.1383 42.3138C17.2534 42.2421 17.3685 42.1705 17.4836 42.0989C18.5053 45.8244 17.5268 49.1058 15.1381 51.6993ZM31.6863 40.494C30.8949 42.4141 29.2401 47.329 28.2328 47.0567C27.3694 46.8275 26.837 43.1019 28.0601 39.4193C28.6789 37.5709 29.9883 35.3642 30.751 34.5044C31.9885 33.1289 33.3556 32.6703 33.6865 33.2292C34.1038 33.9599 32.1756 39.2904 31.6863 40.494ZM45.3423 46.9994C45.0113 47.1714 44.6947 47.286 44.5508 47.2C44.4501 47.1427 44.6947 46.9134 44.6947 46.9134C44.6947 46.9134 46.4071 45.0793 47.0834 44.2482C47.472 43.761 47.9324 43.1879 48.4217 42.5431V42.7293C48.4217 44.9217 46.292 46.3976 45.3423 46.9994ZM55.8756 44.6064C55.631 44.4345 55.6741 43.8613 56.4944 42.0702C56.8109 41.3681 57.5592 40.1931 58.8399 39.0611C58.9838 39.5196 59.0845 39.9638 59.0701 40.3794C59.0557 43.1449 57.07 44.1766 55.8756 44.6064Z" fill="#05CE64"/>
</svg>
