<svg width="70" height="62" viewBox="0 0 70 62" fill="none" xmlns="http://www.w3.org/2000/svg">
<path fill-rule="evenodd" clip-rule="evenodd" d="M70 31.0085C70 26.3966 64.1952 22.0283 55.2913 19.3144C57.3478 10.289 56.4307 3.11048 52.4089 0.810198C51.4803 0.271955 50.398 0.0169972 49.2131 0.0169972V3.18414C49.8682 3.18414 50.398 3.31445 50.8423 3.55241C52.7848 4.65722 53.6222 8.87252 52.9671 14.2946C52.8076 15.6261 52.5513 17.0312 52.238 18.4646C49.4409 17.7847 46.3875 17.2578 43.1803 16.9178C41.2549 14.2946 39.2554 11.9093 37.2445 9.82436C41.8929 5.51841 46.2565 3.16714 49.2245 3.16714V0C45.2995 0 40.1668 2.78187 34.9715 7.60907C29.7762 2.8102 24.6436 0.0566572 20.7186 0.0566572V3.2238C23.6694 3.2238 28.0501 5.56374 32.7043 9.83569C30.7048 11.9207 28.7109 14.289 26.814 16.9178C23.5897 17.2578 20.5363 17.7847 17.7393 18.4759C17.4089 17.0595 17.1696 15.6827 16.9987 14.3626C16.3265 8.94051 17.1582 4.72521 19.0837 3.6034C19.5109 3.34844 20.0692 3.23513 20.7243 3.23513V0.0736544C19.528 0.0736544 18.4399 0.328612 17.5 0.866856C13.4896 3.16714 12.5895 10.3343 14.6631 19.3314C5.77637 22.051 0 26.4079 0 31.0085C0 35.6204 5.80485 39.9887 14.7087 42.7026C12.6522 51.728 13.5693 58.9065 17.5911 61.2068C18.5197 61.745 19.6021 62 20.804 62C24.729 62 29.8617 59.2181 35.057 54.3909C40.2523 59.1898 45.3849 61.9433 49.3099 61.9433C50.5062 61.9433 51.5942 61.6884 52.5342 61.1501C56.5446 58.8499 57.4447 51.6827 55.3711 42.6856C64.2236 39.9773 70 35.6034 70 31.0085ZM41.5055 31.0085C41.5055 27.4278 38.5889 24.5212 34.9829 24.5212C31.3827 24.5212 28.4603 27.4221 28.4603 31.0085C28.4603 34.5949 31.377 37.4958 34.9829 37.4958C38.5889 37.4901 41.5055 34.5892 41.5055 31.0085ZM51.4233 21.5411C50.8936 23.3711 50.2384 25.2578 49.4979 27.1445C48.9111 26.0113 48.3016 24.8725 47.6294 23.7394C46.9743 22.6062 46.2736 21.4958 45.5729 20.4193C47.6009 20.7195 49.5549 21.0878 51.4233 21.5411ZM44.8893 36.6572C43.7785 38.5722 42.6335 40.3909 41.4486 42.0793C39.3237 42.2663 37.1704 42.3626 35 42.3626C32.8467 42.3626 30.6934 42.2606 28.5799 42.0907C27.395 40.4023 26.2386 38.6006 25.1278 36.6969C24.0454 34.8385 23.0599 32.9518 22.1598 31.0482C23.0428 29.1445 24.0454 27.2465 25.1107 25.3881C26.2215 23.4731 27.3665 21.6544 28.5514 19.966C30.6763 19.779 32.8296 19.6827 35 19.6827C37.1533 19.6827 39.3066 19.7847 41.4201 19.9547C42.605 21.6431 43.7614 23.4448 44.8722 25.3484C45.9546 27.2068 46.9401 29.0935 47.8402 30.9972C46.9401 32.8952 45.9603 34.7932 44.8893 36.6572ZM49.4979 34.8102C50.2669 36.7139 50.922 38.6119 51.4689 40.4589C49.6004 40.9122 47.6294 41.2975 45.59 41.5921C46.2907 40.4986 46.9857 39.3768 47.6465 38.2266C48.2959 37.0935 48.9111 35.9433 49.4979 34.8102ZM35.0285 49.949C33.7012 48.5892 32.3739 47.0708 31.0636 45.4108C32.3454 45.4674 33.6613 45.5127 34.9886 45.5127C36.3273 45.5127 37.6546 45.4844 38.9535 45.4108C37.666 47.0708 36.3387 48.5892 35.0285 49.949ZM24.4157 41.5921C22.3877 41.2918 20.4338 40.9235 18.5653 40.4703C19.0951 38.6402 19.7502 36.7535 20.4907 34.8669C21.0775 36 21.687 37.1388 22.3592 38.272C23.0314 39.4108 23.715 40.5156 24.4157 41.5921ZM34.9544 12.0623C36.2817 13.4221 37.6091 14.9405 38.9193 16.6006C37.6375 16.5439 36.3216 16.4986 34.9943 16.4986C33.6556 16.4986 32.3283 16.5269 31.0295 16.6006C32.3169 14.9405 33.6442 13.4221 34.9544 12.0623ZM24.3986 20.4193C23.6979 21.5127 23.0029 22.6346 22.3421 23.7847C21.687 24.9178 21.0718 26.0567 20.485 27.1898C19.716 25.2861 19.0609 23.3881 18.514 21.5411C20.3882 21.0992 22.3592 20.7195 24.3986 20.4193ZM11.4844 38.187C6.43148 36.0453 3.16732 33.2351 3.16732 31.0085C3.16732 28.7819 6.43718 25.9547 11.4844 23.83C12.7091 23.3031 14.0535 22.8385 15.4378 22.3966C16.2524 25.1785 17.3234 28.0737 18.6507 31.0368C17.3405 33.9887 16.2809 36.8669 15.4834 39.6374C14.0706 39.1955 12.7262 38.7139 11.4844 38.187ZM19.1634 58.4646C17.2209 57.3598 16.3835 53.1445 17.0386 47.7224C17.1981 46.3909 17.4544 44.9858 17.7677 43.5524C20.5648 44.2323 23.6182 44.7592 26.8254 45.0992C28.7508 47.7224 30.7503 50.1077 32.7612 52.1926C28.1071 56.4929 23.7435 58.8499 20.7756 58.8499C20.1318 58.8329 19.5907 58.7082 19.1634 58.4646ZM53.007 47.6544C53.6792 53.0765 52.8475 57.2918 50.922 58.4136C50.4948 58.6686 49.9365 58.7819 49.2814 58.7819C46.3306 58.7819 41.9499 56.4419 37.2957 52.17C39.2952 50.085 41.2891 47.7167 43.186 45.0878C46.4103 44.7479 49.4637 44.221 52.2607 43.5241C52.5911 44.9575 52.8475 46.3343 53.007 47.6544ZM58.4985 38.187C57.2738 38.7139 55.9294 39.1785 54.5451 39.6204C53.7305 36.8385 52.6595 33.9433 51.3322 30.9802C52.6424 28.0283 53.702 25.1501 54.4995 22.3796C55.9123 22.8215 57.251 23.3031 58.5099 23.8244C63.5628 25.966 66.827 28.7762 66.827 31.0028C66.8156 33.2351 63.5514 36.0567 58.4985 38.187Z" fill="#05CE64"/>
</svg>
