<svg width="47" height="70" viewBox="0 0 47 70" fill="none" xmlns="http://www.w3.org/2000/svg">
<path d="M11.7523 70C18.2371 70 23.5 64.7733 23.5 58.3333V46.6666H11.7523C5.26765 46.6666 0.00469971 51.8933 0.00469971 58.3333C0.00469971 64.7733 5.26765 70 11.7523 70Z" fill="#05CE64"/>
<path d="M0.00469971 35C0.00469971 28.56 5.26765 23.3334 11.7523 23.3334H23.5V46.6667H11.7523C5.26765 46.6667 0.00469971 41.44 0.00469971 35Z" fill="#05CE64"/>
<path d="M0.00567627 11.6667C0.00567627 5.22667 5.26862 0 11.7533 0H23.501V23.3333H11.7533C5.26862 23.3333 0.00567627 18.1067 0.00567627 11.6667Z" fill="#05CE64"/>
<path d="M23.5 0H35.2477C41.7324 0 46.9953 5.22667 46.9953 11.6667C46.9953 18.1067 41.7324 23.3333 35.2477 23.3333H23.5V0Z" fill="#05CE64"/>
<path d="M46.9953 35C46.9953 41.44 41.7324 46.6667 35.2477 46.6667C28.7629 46.6667 23.5 41.44 23.5 35C23.5 28.56 28.7629 23.3334 35.2477 23.3334C41.7324 23.3334 46.9953 28.56 46.9953 35Z" fill="#05CE64"/>
</svg>
