<svg width="81" height="81" viewBox="0 0 81 81" fill="none" xmlns="http://www.w3.org/2000/svg">
<path d="M17.1492 0H20.7879V3.60703H24.1418V0H27.7805V10.916H24.1418V7.27734H20.8195V10.916H17.1492V0ZM32.5899 3.63867H29.3783V0H39.4559V3.63867H36.2285V10.916H32.5899V3.63867ZM41.0537 0H44.8664L47.2078 3.84434L49.5492 0H53.3619V10.916H49.7233V5.50547L47.1762 9.42891L44.6291 5.50547V10.916H41.0537V0ZM55.1654 0H58.8041V7.30898H63.9615V10.916H55.1654" fill="#F0F0F0"/>
<path d="M17.0226 74.5137L11.8019 15.9153H69.198L63.9773 74.4821L40.4525 81" fill="#05CE64"/>
<path d="M40.5 76.0166V20.7246H63.9615L59.4844 70.7168" fill="#05CE64"/>
<path d="M22.4648 27.8912H40.5V35.0737H30.3434L31.0078 42.4301H40.5V49.5967H24.4266L22.4648 27.8912ZM24.743 53.2037H31.957L32.4633 58.9465L40.5 61.0981V68.5969L25.7555 64.4836" fill="#202020"/>
<path d="M58.4719 27.8912H40.4684V35.0737H57.8074L58.4719 27.8912ZM57.1588 42.4301H40.4684V49.6125H49.3277L48.4893 58.9465L40.4684 61.0981V68.5653L55.1812 64.4836" fill="#151515"/>
</svg>
