<svg width="78" height="62" viewBox="0 0 78 62" fill="none" xmlns="http://www.w3.org/2000/svg">
<g clip-path="url(#clip0)">
<path d="M8.60453 8.10255C8.45736 3.88716 11.75 0 16.2005 0H61.8051C66.2557 0 69.5483 3.88716 69.4011 8.10255C69.2597 12.1518 69.4433 17.3972 70.7667 21.6742C72.0944 25.9643 74.3332 28.6761 78 29.0245V32.9755C74.3332 33.3239 72.0944 36.0357 70.7667 40.3258C69.4433 44.6028 69.2597 49.8482 69.4011 53.8976C69.5483 58.1128 66.2557 62 61.8051 62H16.2005C11.75 62 8.45736 58.1128 8.60468 53.8976C8.7459 49.8482 8.56233 44.6028 7.23877 40.3258C5.91124 36.0357 3.66691 33.3239 0 32.9755V29.0245C3.66676 28.6761 5.91124 25.9643 7.23877 21.6742C8.56233 17.3972 8.7459 12.1518 8.60453 8.10255Z" fill="#05CE64"/>
<g filter="url(#filter0_d)">
<path d="M40.6915 47.4812C47.8969 47.4812 52.2388 43.9621 52.2388 38.1577C52.2388 33.7701 49.1408 30.5937 44.5406 30.0908V29.908C47.9203 29.3596 50.5725 26.2289 50.5725 22.7326C50.5725 17.7509 46.6295 14.5057 40.6211 14.5057H27.1021V47.4812H40.6915ZM32.3595 18.6877H39.3537C43.1559 18.6877 45.3151 20.3787 45.3151 23.4409C45.3151 26.7088 42.8039 28.5369 38.2506 28.5369H32.3595V18.6877ZM32.3595 43.2994V32.4447H39.3067C44.2824 32.4447 46.8641 34.2728 46.8641 37.8378C46.8641 41.4026 44.3529 43.2994 39.6118 43.2994H32.3595Z" fill="#202020"/>
<path d="M40.6915 47.4812C47.8969 47.4812 52.2388 43.9621 52.2388 38.1577C52.2388 33.7701 49.1408 30.5937 44.5406 30.0908V29.908C47.9203 29.3596 50.5725 26.2289 50.5725 22.7326C50.5725 17.7509 46.6295 14.5057 40.6211 14.5057H27.1021V47.4812H40.6915ZM32.3595 18.6877H39.3537C43.1559 18.6877 45.3151 20.3787 45.3151 23.4409C45.3151 26.7088 42.8039 28.5369 38.2506 28.5369H32.3595V18.6877ZM32.3595 43.2994V32.4447H39.3067C44.2824 32.4447 46.8641 34.2728 46.8641 37.8378C46.8641 41.4026 44.3529 43.2994 39.6118 43.2994H32.3595Z" stroke="#202020"/>
</g>
</g>
<defs>
<filter id="filter0_d" x="10.6021" y="2.00574" width="58.1367" height="65.9755" filterUnits="userSpaceOnUse" color-interpolation-filters="sRGB">
<feFlood flood-opacity="0" result="BackgroundImageFix"/>
<feColorMatrix in="SourceAlpha" type="matrix" values="0 0 0 0 0 0 0 0 0 0 0 0 0 0 0 0 0 0 127 0" result="hardAlpha"/>
<feOffset dy="4"/>
<feGaussianBlur stdDeviation="8"/>
<feColorMatrix type="matrix" values="0 0 0 0 0 0 0 0 0 0 0 0 0 0 0 0 0 0 0.15 0"/>
<feBlend mode="normal" in2="BackgroundImageFix" result="effect1_dropShadow"/>
<feBlend mode="normal" in="SourceGraphic" in2="effect1_dropShadow" result="shape"/>
</filter>
<clipPath id="clip0">
<rect width="78" height="62" fill="white"/>
</clipPath>
</defs>
</svg>
