<svg width="59" height="82" viewBox="0 0 59 82" fill="none" xmlns="http://www.w3.org/2000/svg">
<path d="M11.7948 0.163933C15.4176 0.119516 19.0404 0.150266 22.6632 0.148558C22.6719 1.27093 22.6891 2.39331 22.6477 3.51568C20.1376 3.4986 17.6293 3.51568 15.1209 3.53106C15.1037 5.16081 15.0709 6.79056 15.0864 8.42031C17.6051 8.43568 20.1256 8.4596 22.6443 8.44935C22.6736 9.37185 22.6632 10.2978 22.6356 11.222C19.0232 11.1981 15.4107 11.2083 11.7983 11.2117C11.8069 7.52856 11.8138 3.8471 11.7948 0.163933Z" fill="#F0F0F0"/>
<path d="M23.9554 0.152046C27.623 0.145213 31.2907 0.123004 34.9601 0.164004C34.9463 1.22488 34.9566 2.28405 34.9566 3.34492C32.2878 3.33638 29.6173 3.34834 26.9485 3.37909C26.952 3.79592 26.952 4.21275 26.9485 4.62959C29.6139 4.6723 32.2775 4.67742 34.9411 4.6928C34.9515 6.8675 34.9463 9.0405 34.9601 11.2135C31.2907 11.2067 27.6213 11.2101 23.9519 11.2272C23.9329 10.3491 23.9312 9.47271 23.9571 8.59463C26.5 8.60146 29.0446 8.60488 31.5874 8.58438C31.603 8.01892 31.6099 7.45175 31.6081 6.8863C29.0532 6.8863 26.4965 6.89484 23.9416 6.87775C23.9416 4.63642 23.9416 2.39338 23.9554 0.152046Z" fill="#F0F0F0"/>
<path d="M36.1884 0.170776C39.8491 0.170776 43.5116 0.170776 47.1724 0.170776C47.1879 1.23678 47.2034 2.30278 47.1689 3.36707C44.4881 3.36536 41.8072 3.38073 39.1263 3.38586C39.1332 3.82148 39.1436 4.25711 39.166 4.69273C41.8313 4.68078 44.4967 4.71323 47.1603 4.74057C47.1845 6.90503 47.2017 9.06948 47.1707 11.2339C43.5013 11.2237 39.8319 11.2237 36.1625 11.2408C36.1401 10.3661 36.1332 9.48803 36.1711 8.61336C38.7088 8.63215 41.2482 8.62873 43.7877 8.60482C43.7946 8.03765 43.8066 7.47048 43.8014 6.90503C41.2534 6.92894 38.7036 6.91528 36.1539 6.90673C36.1539 4.66198 36.1711 2.41553 36.1884 0.170776Z" fill="#F0F0F0"/>
<path d="M0 15.7953C19.6529 15.7936 39.304 15.7919 58.9569 15.7953C57.8752 27.8988 56.8108 40.0024 55.6843 52.1025C55.0149 59.8361 54.3249 67.5698 53.5968 75.2983C49.403 76.3984 45.2506 77.6523 41.0585 78.7576C37.208 79.8766 33.3264 80.8896 29.4741 82H29.3603C25.6943 80.9204 21.9922 79.9705 18.3262 78.8909C13.9996 77.736 9.71085 76.448 5.38246 75.2983C4.81833 69.5053 4.30942 63.7089 3.8074 57.9126C2.86029 47.203 1.83038 36.5003 0.919503 25.7891C0.603801 22.5654 0.377807 19.3316 0 16.1148V15.7953ZM29.5707 20.5701C29.5293 22.8951 29.6018 25.2219 29.5293 27.5452C22.7875 27.5213 16.0439 27.5401 9.30199 27.5469C9.41757 29.8036 9.72292 32.045 10.0369 34.2829C16.3095 34.5135 22.5908 34.2743 28.8634 34.4606C23.3757 36.8983 17.8208 39.1943 12.3089 41.5809C11.8362 41.7893 11.3308 41.9465 10.9081 42.2506C10.9547 44.7293 11.3584 47.1945 11.5361 49.6681C14.8794 49.6562 18.221 49.6032 21.5643 49.5981C24.2435 49.5844 26.9244 49.6374 29.6035 49.5793C29.4758 53.6554 29.6432 57.7366 29.5173 61.8127C27.7145 61.5479 25.9341 61.1498 24.1382 60.8338C22.7219 60.528 21.2711 60.3691 19.8754 59.9677C19.677 58.0116 19.539 56.0488 19.363 54.091C18.9594 53.968 18.5315 53.98 18.114 53.9731C16.0887 53.9851 14.0617 53.9663 12.0346 53.997C12.233 57.7605 12.5746 61.5188 13.156 65.2464C15.1537 65.7623 17.1549 66.268 19.1491 66.8061C22.2044 67.6295 25.2975 68.3146 28.358 69.1243C28.722 69.2012 29.0894 69.3345 29.4672 69.3037C29.6708 71.7791 29.5138 74.2698 29.5518 76.752C30.2573 76.6393 30.9508 76.4668 31.6323 76.2583C37.4253 74.7003 43.2115 73.1133 49.0011 71.5399C49.2892 69.2849 49.4237 67.0145 49.6514 64.7544C50.2535 57.8835 50.8608 51.0126 51.4922 44.1434C52.2323 36.2851 52.8723 28.4182 53.6175 20.5598C45.6008 20.5667 37.5858 20.5445 29.5707 20.5701Z" fill="#05CE64"/>
<path d="M29.5707 20.57C37.5858 20.5443 45.6008 20.5665 53.6175 20.5597C52.8723 28.418 52.2323 36.2849 51.4922 44.1433C50.8608 51.0125 50.2535 57.8834 49.6514 64.7543C49.4237 67.0144 49.2892 69.2848 49.0011 71.5398C43.2115 73.1132 37.4253 74.7002 31.6323 76.2582C30.9509 76.4666 30.2573 76.6392 29.5518 76.7519C29.5138 74.2697 29.6708 71.779 29.4672 69.3036C29.519 69.2933 29.6242 69.2728 29.676 69.2626C35.0636 67.9233 40.415 66.449 45.7906 65.0618C46.4703 57.511 47.2242 49.9635 47.702 42.3973C43.1304 42.4213 38.557 42.4076 33.9854 42.4264C33.3195 42.4298 32.6536 42.4264 31.9911 42.3786C34.4512 41.1246 37.0389 40.1304 39.5645 39.0114C41.9883 37.9232 44.4415 36.9033 46.8739 35.8356C47.3432 35.6221 47.8435 35.4444 48.2558 35.1267C48.418 34.5373 48.4093 33.9206 48.4732 33.3175C48.6129 31.4042 48.8613 29.5011 48.9545 27.5861C42.48 27.5348 36.0055 27.5793 29.5293 27.5451C29.6018 25.2218 29.5293 22.895 29.5707 20.57Z" fill="#05CE64"/>
<path d="M29.6035 49.5791C32.7295 49.5262 35.8572 49.6099 38.9849 49.5894C38.8106 52.7549 38.5449 55.9154 38.3793 59.0809C36.4627 59.701 34.5167 60.2255 32.5846 60.7995C31.5547 61.1104 30.4971 61.3564 29.5173 61.8125C29.6432 57.7364 29.4759 53.6552 29.6035 49.5791Z" fill="#05CE64"/>
<path d="M9.30199 27.5469C16.0439 27.5401 22.7875 27.5213 29.5293 27.5452C29.6173 34.8911 29.5069 42.2369 29.6035 49.5793C26.9244 49.6374 24.2435 49.5844 21.5643 49.5981C18.221 49.6032 14.8794 49.6562 11.5361 49.6681C11.3584 47.1945 10.9547 44.7293 10.9081 42.2506C11.3308 41.9465 11.8362 41.7893 12.3089 41.5809C17.8208 39.1943 23.3757 36.8983 28.8634 34.4606C22.5908 34.2743 16.3095 34.5135 10.0369 34.2829C9.72292 32.045 9.41757 29.8036 9.30199 27.5469Z" fill="#202020"/>
<path d="M12.0346 53.9971C14.0617 53.9663 16.0887 53.9851 18.114 53.9731C18.5315 53.98 18.9594 53.968 19.363 54.091C19.539 56.0488 19.677 58.0116 19.8754 59.9677C21.271 60.3691 22.7219 60.528 24.1382 60.8338C25.9341 61.1499 27.7145 61.5479 29.5172 61.8127C29.6898 64.2932 29.3879 66.7908 29.676 69.2627C29.6242 69.273 29.519 69.2935 29.4672 69.3037C29.0894 69.3345 28.722 69.2012 28.3579 69.1244C25.2975 68.3146 22.2044 67.6296 19.1491 66.8061C17.1549 66.268 15.1537 65.7624 13.156 65.2464C12.5746 61.5189 12.233 57.7605 12.0346 53.9971Z" fill="#202020"/>
<path d="M29.5293 27.5452C36.0055 27.5793 42.48 27.5349 48.9545 27.5862C48.8613 29.5012 48.6129 31.4043 48.4732 33.3176C48.4093 33.9207 48.418 34.5374 48.2558 35.1267C47.8435 35.4445 47.3432 35.6222 46.8739 35.8357C44.4415 36.9034 41.9883 37.9233 39.5645 39.0115C37.0389 40.1305 34.4512 41.1247 31.9911 42.3786C32.6536 42.4265 33.3195 42.4299 33.9854 42.4265C38.557 42.4077 43.1304 42.4213 47.702 42.3974C47.2242 49.9636 46.4703 57.511 45.7906 65.0619C40.415 66.449 35.0636 67.9233 29.676 69.2627C29.3879 66.7907 29.6898 64.2931 29.5173 61.8126C30.4971 61.3565 31.5546 61.1105 32.5846 60.7996C34.5167 60.2256 36.4627 59.7011 38.3793 59.081C38.5449 55.9155 38.8106 52.755 38.9849 49.5895C35.8572 49.61 32.7295 49.5263 29.6035 49.5792C29.5069 42.2368 29.6173 34.891 29.5293 27.5452Z" fill="#151515"/>
</svg>
