<svg width="428" height="369" viewBox="0 0 428 369" fill="none" xmlns="http://www.w3.org/2000/svg">
<path d="M233.619 102.763C255.384 102.763 273.028 85.136 273.028 63.3924C273.028 41.6489 255.384 24.0222 233.619 24.0222C211.854 24.0222 194.209 41.6489 194.209 63.3924C194.209 85.136 211.854 102.763 233.619 102.763Z" fill="#A0616A"/>
<path d="M204.205 83.0775C204.205 83.0775 211.63 138.995 200.207 145.271C188.784 151.547 268.174 152.118 268.174 152.118C268.174 152.118 250.468 103.618 258.464 88.7833L204.205 83.0775Z" fill="#A0616A"/>
<path d="M326.145 152.401L319.542 182.436L305.582 245.981L305.164 249.461L300.346 289.749L297.141 316.513L294.992 334.491C281.926 341.199 272.456 345.83 272.456 345.83C272.456 345.83 271.642 341.751 270.329 336.531C261.159 339.277 244.192 343.833 229.813 344.744C235.049 350.574 237.455 356.051 234.192 360.093C224.341 372.278 183.676 346.751 169.453 337.232C169.121 339.511 168.996 341.815 169.077 344.117L158.193 335.754L159.27 316.513L161.087 283.956L163.37 243.127C162.65 241.379 162.047 239.585 161.564 237.757C158.23 225.915 154.184 202.267 151.081 182.436C148.584 166.476 146.708 152.99 146.312 150.12C146.258 149.745 146.231 149.553 146.231 149.553L206.485 122.955C210.767 132.875 230.762 135.857 230.762 135.857C247.327 134.717 260.312 125.99 260.312 125.99L326.145 152.401Z" fill="#D0CDE1"/>
<path d="M277.028 334.421C277.028 334.421 274.477 335.294 270.329 336.531C261.159 339.277 244.192 343.833 229.813 344.743C217.433 345.536 206.972 343.63 205.059 335.562C204.239 332.092 205.402 329.239 207.937 326.894C215.504 319.886 235.269 317.375 250.944 316.513C255.371 316.272 259.466 316.159 262.874 316.116C268.662 316.041 272.456 316.159 272.456 316.159L272.547 316.513L277.028 334.421Z" fill="#A0616A"/>
<path d="M200.834 26.1519L193.465 23.2048C193.465 23.2048 208.872 6.25946 230.308 7.73304L224.279 1.10217C224.279 1.10217 239.017 -4.79181 252.414 10.68C259.457 18.8132 267.605 28.3733 272.685 39.1427H280.576L277.283 46.3874L288.81 53.6322L276.979 52.3309C277.684 56.2982 277.792 60.3484 277.3 64.3476C276.792 68.348 274.749 71.995 271.6 74.5188C271.6 74.5188 262.462 55.622 262.462 52.675V60.0425C262.462 60.0425 255.093 53.4118 255.093 48.9913L251.074 54.1485L249.065 46.0442L224.279 54.1485L228.299 47.5178L212.892 49.728L218.921 41.6237C218.921 41.6237 201.504 51.2015 200.834 59.3059C200.164 67.4101 195.066 75.0894 195.066 75.0894C195.066 75.0894 181.408 37.2031 200.834 26.1519Z" fill="#2F2E41"/>
<path d="M368.981 290.482C364.967 294.829 355.02 301.377 342.962 308.466C338.476 311.1 333.701 313.814 328.83 316.513C317.206 322.953 305.035 329.335 294.992 334.491C281.926 341.199 272.456 345.83 272.456 345.83C272.456 345.83 271.642 341.751 270.329 336.531C268.571 329.544 265.923 320.512 263.163 316.513C263.067 316.373 262.971 316.245 262.874 316.116C262.07 315.062 261.261 314.446 260.462 314.446L300.346 289.749L317.581 279.073L305.163 249.461L289.59 212.316L298.99 182.436L308.438 152.401H326.145C326.145 152.401 332.008 165.186 339.505 183.014C340.625 185.68 341.783 188.459 342.962 191.329C358.386 228.806 377.614 281.14 368.981 290.482Z" fill="#D0CDE1"/>
<path d="M234.192 360.093C224.341 372.278 183.676 346.751 169.453 337.232C166.355 335.16 164.511 333.848 164.511 333.848L177.523 316.513L181.645 311.025C181.645 311.025 185.332 312.979 190.782 316.159C190.98 316.277 191.179 316.395 191.382 316.513C196.082 319.27 201.983 322.873 207.937 326.894C216.153 332.446 224.459 338.779 229.813 344.744C235.049 350.574 237.455 356.051 234.192 360.093Z" fill="#A0616A"/>
<path d="M190.782 316.159C189.328 316.154 187.876 316.272 186.441 316.513C174.12 318.627 170.487 329.769 169.453 337.232C169.121 339.511 168.996 341.816 169.077 344.117L158.193 335.754L154.227 332.708C144.682 329.383 136.177 323.478 128.803 316.513C122.406 310.363 116.667 303.565 111.68 296.227C106.713 288.995 102.285 281.408 98.4325 273.527C97.3574 271.327 96.7795 268.919 96.7397 266.472C96.6999 264.025 97.1991 261.599 98.2021 259.366L111.68 229.357L131.381 185.498C131.526 184.454 131.685 183.434 131.858 182.436C135.765 160.057 146.231 150.12 146.231 150.12H154.227L159.576 182.436L166.221 222.585L161.564 237.757L150.803 272.798L161.087 283.956L190.782 316.159Z" fill="#D0CDE1"/>
<path d="M199.832 222.617L206.667 230.584C209.207 230.1 211.859 229.531 214.591 228.893L212.627 222.617L217.428 228.212C246.366 221.101 282.235 207.277 282.235 207.277C282.235 207.277 243.511 210.114 214.597 203.803C201.805 201.011 188.642 207.347 183.393 219.331C180.342 226.297 180.821 232.331 191.643 232.331C195.299 232.269 198.946 231.926 202.55 231.307L199.832 222.617Z" fill="#1FFF87"/>
<path d="M355.663 353.561V356.811C355.665 357.703 355.5 358.587 355.176 359.418C355.032 359.789 354.858 360.147 354.656 360.489C354.017 361.56 353.111 362.447 352.026 363.063C350.94 363.678 349.714 364.002 348.466 364.001H109.151C107.903 364.002 106.676 363.678 105.591 363.063C104.506 362.447 103.6 361.56 102.961 360.489C102.759 360.147 102.585 359.789 102.441 359.418C102.117 358.587 101.952 357.703 101.954 356.811V353.561C101.953 352.617 102.139 351.682 102.501 350.809C102.862 349.937 103.393 349.144 104.061 348.477C104.729 347.809 105.523 347.279 106.396 346.918C107.27 346.557 108.206 346.371 109.151 346.371H122.945V344.856C122.945 344.817 122.953 344.778 122.968 344.741C122.983 344.705 123.005 344.672 123.033 344.644C123.061 344.616 123.094 344.594 123.131 344.579C123.167 344.564 123.206 344.556 123.246 344.556H130.443C130.482 344.556 130.521 344.564 130.558 344.579C130.594 344.594 130.627 344.616 130.655 344.644C130.683 344.672 130.705 344.705 130.72 344.741C130.735 344.778 130.743 344.817 130.743 344.856V346.371H135.239V344.856C135.239 344.817 135.247 344.778 135.262 344.741C135.277 344.705 135.299 344.672 135.327 344.644C135.355 344.616 135.388 344.594 135.425 344.579C135.461 344.564 135.5 344.556 135.54 344.556H142.737C142.776 344.556 142.815 344.564 142.852 344.579C142.888 344.594 142.921 344.616 142.949 344.644C142.977 344.672 142.999 344.705 143.014 344.741C143.029 344.778 143.037 344.817 143.037 344.856V346.371H147.539V344.856C147.539 344.817 147.546 344.778 147.562 344.741C147.577 344.705 147.599 344.672 147.627 344.644C147.654 344.616 147.688 344.594 147.724 344.579C147.76 344.564 147.799 344.556 147.839 344.556H155.036C155.076 344.556 155.115 344.564 155.151 344.579C155.188 344.594 155.221 344.616 155.249 344.644C155.277 344.672 155.299 344.705 155.314 344.741C155.329 344.778 155.337 344.817 155.336 344.856V346.371H159.833V344.856C159.833 344.817 159.84 344.778 159.856 344.741C159.871 344.705 159.893 344.672 159.921 344.644C159.948 344.616 159.982 344.594 160.018 344.579C160.054 344.564 160.093 344.556 160.133 344.556H167.33C167.37 344.556 167.409 344.564 167.445 344.579C167.482 344.594 167.515 344.616 167.543 344.644C167.571 344.672 167.593 344.705 167.608 344.741C167.623 344.778 167.631 344.817 167.63 344.856V346.371H172.127V344.856C172.127 344.817 172.134 344.778 172.15 344.741C172.165 344.705 172.187 344.672 172.215 344.644C172.242 344.616 172.276 344.594 172.312 344.579C172.348 344.564 172.387 344.556 172.427 344.556H179.624C179.664 344.556 179.703 344.564 179.739 344.579C179.776 344.594 179.809 344.616 179.837 344.644C179.865 344.672 179.887 344.705 179.902 344.741C179.917 344.778 179.924 344.817 179.924 344.856V346.371H184.426V344.856C184.426 344.817 184.434 344.778 184.449 344.741C184.464 344.705 184.486 344.672 184.514 344.644C184.542 344.616 184.575 344.594 184.611 344.579C184.648 344.564 184.687 344.556 184.726 344.556H191.924C191.963 344.556 192.002 344.564 192.039 344.579C192.075 344.594 192.108 344.616 192.136 344.644C192.164 344.672 192.186 344.705 192.201 344.741C192.216 344.778 192.224 344.817 192.224 344.856V346.371H196.72V344.856C196.72 344.817 196.728 344.778 196.743 344.741C196.758 344.705 196.78 344.672 196.808 344.644C196.836 344.616 196.869 344.594 196.905 344.579C196.942 344.564 196.981 344.556 197.02 344.556H253.399C253.438 344.556 253.477 344.564 253.514 344.579C253.55 344.594 253.583 344.616 253.611 344.644C253.639 344.672 253.661 344.705 253.676 344.741C253.691 344.778 253.699 344.817 253.699 344.856V346.371H258.201V344.856C258.201 344.817 258.208 344.778 258.224 344.741C258.239 344.705 258.261 344.672 258.289 344.644C258.316 344.616 258.35 344.594 258.386 344.579C258.422 344.564 258.462 344.556 258.501 344.556H265.698C265.778 344.557 265.854 344.589 265.91 344.645C265.966 344.701 265.998 344.777 265.999 344.856V346.371H270.495V344.856C270.495 344.817 270.503 344.778 270.518 344.741C270.533 344.705 270.555 344.672 270.583 344.644C270.611 344.616 270.644 344.594 270.68 344.579C270.716 344.564 270.756 344.556 270.795 344.556H277.992C278.032 344.556 278.071 344.564 278.107 344.579C278.144 344.594 278.177 344.616 278.205 344.644C278.233 344.672 278.255 344.705 278.27 344.741C278.285 344.778 278.293 344.817 278.293 344.856V346.371H282.789V344.856C282.789 344.817 282.797 344.778 282.812 344.741C282.827 344.705 282.849 344.672 282.877 344.644C282.905 344.616 282.938 344.594 282.974 344.579C283.011 344.564 283.05 344.556 283.089 344.556H290.286C290.326 344.556 290.365 344.564 290.401 344.579C290.438 344.594 290.471 344.616 290.499 344.644C290.527 344.672 290.549 344.705 290.564 344.741C290.579 344.778 290.587 344.817 290.587 344.856V346.371H295.088V344.856C295.088 344.817 295.096 344.778 295.111 344.741C295.126 344.705 295.148 344.672 295.176 344.644C295.204 344.616 295.237 344.594 295.273 344.579C295.31 344.564 295.349 344.556 295.388 344.556H302.586C302.665 344.557 302.74 344.589 302.795 344.645C302.85 344.702 302.881 344.777 302.881 344.856V346.371H307.382V344.856C307.382 344.817 307.39 344.778 307.405 344.741C307.42 344.705 307.442 344.672 307.47 344.644C307.498 344.616 307.531 344.594 307.567 344.579C307.604 344.564 307.643 344.556 307.682 344.556H314.88C314.919 344.556 314.958 344.564 314.995 344.579C315.031 344.594 315.064 344.616 315.092 344.644C315.12 344.672 315.142 344.705 315.157 344.741C315.172 344.778 315.18 344.817 315.18 344.856V346.371H319.676V344.856C319.676 344.817 319.684 344.778 319.699 344.741C319.714 344.705 319.736 344.672 319.764 344.644C319.792 344.616 319.825 344.594 319.861 344.579C319.898 344.564 319.937 344.556 319.976 344.556H327.174C327.213 344.556 327.252 344.564 327.289 344.579C327.325 344.594 327.358 344.616 327.386 344.644C327.414 344.672 327.436 344.705 327.451 344.741C327.466 344.778 327.474 344.817 327.474 344.856V346.371H348.466C349.411 346.371 350.347 346.557 351.22 346.918C352.094 347.279 352.887 347.809 353.556 348.477C354.224 349.144 354.754 349.937 355.116 350.809C355.477 351.682 355.663 352.617 355.663 353.561Z" fill="#3F3D56"/>
<path d="M425.252 359.418H32.4233V360.489H425.252V359.418Z" fill="#3F3D56"/>
<path d="M336.394 216.701H247.194V214.864H206.747V216.701H117.179C115.579 216.701 114.044 217.336 112.913 218.466C111.781 219.597 111.146 221.13 111.146 222.729V344.749C111.146 346.348 111.781 347.881 112.913 349.011C114.044 350.142 115.579 350.777 117.179 350.777H336.394C337.994 350.777 339.529 350.142 340.66 349.011C341.792 347.881 342.428 346.348 342.428 344.749V222.729C342.428 221.937 342.271 221.153 341.968 220.422C341.665 219.691 341.221 219.026 340.66 218.466C340.1 217.907 339.435 217.463 338.703 217.16C337.971 216.857 337.186 216.701 336.394 216.701Z" fill="#3F3D56"/>
<path d="M226.962 272.686C234.362 272.686 240.36 266.693 240.36 259.301C240.36 251.909 234.362 245.917 226.962 245.917C219.563 245.917 213.564 251.909 213.564 259.301C213.564 266.693 219.563 272.686 226.962 272.686Z" stroke="#D0CDE1" stroke-width="2" stroke-miterlimit="10"/>
<path d="M222.675 277.504C230.074 277.504 236.073 271.512 236.073 264.12C236.073 256.728 230.074 250.735 222.675 250.735C215.275 250.735 209.277 256.728 209.277 264.12C209.277 271.512 215.275 277.504 222.675 277.504Z" fill="#D0CDE1"/>
<path d="M58.1184 354.009H43.1126V369H58.1184V354.009Z" fill="#D0CDE1"/>
<path d="M49.0098 342.231V360.434H67.2311V342.231H49.0098ZM66.4379 359.642H49.7976V343.023H66.4379V359.642Z" fill="#3F3D56"/>
<path d="M405.394 354.009H390.389V369H405.394V354.009Z" fill="#D0CDE1"/>
<path d="M396.286 342.231V360.434H414.507V342.231H396.286ZM413.714 359.642H397.074V343.023H413.714V359.642Z" fill="#3F3D56"/>
<path d="M50.6873 123.199C74.1705 123.199 93.2074 104.181 93.2074 80.7216C93.2074 57.2618 74.1705 38.2439 50.6873 38.2439C27.2041 38.2439 8.16724 57.2618 8.16724 80.7216C8.16724 104.181 27.2041 123.199 50.6873 123.199Z" fill="#1FFF87"/>
<path d="M65.5049 30.2439C61.655 29.7548 57.7585 29.7548 53.9085 30.2439C45.3314 31.369 37.2574 34.9285 30.6445 40.5001C24.0317 46.0717 19.1575 53.4215 16.6004 61.6774C15.4374 65.4399 14.7789 69.3398 14.6419 73.2752C14.6226 73.8222 14.6097 74.3757 14.6097 74.9292C14.6216 86.8741 19.3768 98.3264 27.8315 106.773C36.2863 115.219 47.7499 119.969 59.7068 119.981C60.6667 119.981 61.6266 119.949 62.5736 119.891C64.7967 119.752 67.0062 119.446 69.1836 118.977C79.5814 116.744 88.8546 110.911 95.3653 102.509C101.876 94.1079 105.205 83.6782 104.765 73.0624C104.325 62.4465 100.144 52.3276 92.9601 44.4927C85.7763 36.6578 76.0521 31.6111 65.5049 30.2439H65.5049ZM73.8221 116.364H73.8157C70.1837 117.602 66.4034 118.353 62.5736 118.598C61.6265 118.662 60.6666 118.694 59.7067 118.694C48.0923 118.68 36.9577 114.064 28.7451 105.86C20.5324 97.6556 15.9123 86.5321 15.8981 74.9292C15.8981 74.3757 15.911 73.8222 15.9303 73.2752C16.3732 61.9676 21.1773 51.2695 29.337 43.4203C37.4966 35.5711 48.3792 31.1793 59.7067 31.1643C70.0855 31.1649 80.1271 34.8464 88.0424 41.553C95.9577 48.2596 101.233 57.5557 102.927 67.785C104.622 78.0144 102.626 88.5125 97.2963 97.4092C91.966 106.306 83.6473 113.023 73.8221 116.364H73.8221Z" fill="#3F3D56"/>
<path d="M60.351 33.7387H59.0625V42.7491H60.351V33.7387Z" fill="#3F3D56"/>
<path d="M31.0072 45.348L30.0961 46.2582L36.4738 52.6296L37.3849 51.7194L31.0072 45.348Z" fill="#3F3D56"/>
<path d="M18.4752 74.2856V75.5728H27.4946V74.2856H18.4752Z" fill="#3F3D56"/>
<path d="M30.096 103.6L31.0071 104.51L37.3848 98.1391L36.4737 97.2289L30.096 103.6Z" fill="#3F3D56"/>
<path d="M82.0287 51.7194L82.9398 52.6295L89.3175 46.2582L88.4064 45.348L82.0287 51.7194Z" fill="#3F3D56"/>
<path d="M91.9189 74.2856V75.5728H100.938V74.2856H91.9189Z" fill="#3F3D56"/>
<path d="M82.9398 97.2289L82.0287 98.1391L88.4064 104.51L89.3175 103.6L82.9398 97.2289Z" fill="#3F3D56"/>
<path d="M60.351 107.109H59.0625V116.12H60.351V107.109Z" fill="#3F3D56"/>
<path d="M61.6395 72.3548C61.0819 71.9371 60.4037 71.7112 59.7068 71.7112C59.0098 71.7112 58.3316 71.9371 57.774 72.3548C57.3923 72.6445 57.078 73.0134 56.8528 73.4361C56.5674 73.9804 56.4439 74.5949 56.497 75.2071C56.5501 75.8193 56.7775 76.4035 57.1523 76.8907C57.5272 77.3778 58.0338 77.7476 58.6123 77.9563C59.1908 78.1651 59.817 78.2039 60.417 78.0684C61.0169 77.9329 61.5655 77.6287 61.9978 77.1916C62.4302 76.7546 62.7282 76.203 62.8568 75.6021C62.9854 75.0012 62.9391 74.3761 62.7234 73.8007C62.5077 73.2252 62.1315 72.7235 61.6395 72.3548H61.6395ZM59.7068 76.86C59.1946 76.8585 58.7039 76.6546 58.3418 76.2929C57.9796 75.9311 57.7755 75.4409 57.774 74.9292C57.7765 74.5387 57.8954 74.1578 58.1155 73.8351C58.3043 73.562 58.5604 73.3421 58.8591 73.1968C59.1578 73.0515 59.489 72.9857 59.8206 73.0057C60.1522 73.0256 60.4731 73.1308 60.7521 73.3109C61.0312 73.491 61.259 73.74 61.4136 74.0338C61.5681 74.3276 61.6442 74.6562 61.6344 74.988C61.6246 75.3198 61.5293 75.6434 61.3577 75.9276C61.186 76.2117 60.9439 76.4469 60.6547 76.6102C60.3655 76.7736 60.039 76.8596 59.7068 76.86V76.86Z" fill="#3F3D56"/>
<path d="M65.505 18.9358H53.9086V30.5207H65.505V18.9358Z" fill="#3F3D56"/>
<path d="M59.7067 20.8667C68.2461 20.8667 75.1686 18.4174 75.1686 15.396C75.1686 12.3747 68.2461 9.92542 59.7067 9.92542C51.1674 9.92542 44.2449 12.3747 44.2449 15.396C44.2449 18.4174 51.1674 20.8667 59.7067 20.8667Z" fill="#3F3D56"/>
<path d="M61.6395 50.4724H57.774V72.3548H61.6395V50.4724Z" fill="#3F3D56"/>
<path d="M121.118 118.02H0V119.308H121.118V118.02Z" fill="#3F3D56"/>
<path d="M80.7061 321.1C81.2062 338.205 71.2015 344.474 58.646 344.84C58.3543 344.849 58.064 344.854 57.775 344.856C57.1927 344.861 56.6161 344.851 56.0452 344.827C44.6899 344.356 35.7016 338.334 35.2365 322.426C34.7553 305.963 55.2097 284.573 56.7443 282.991L56.747 282.989C56.8053 282.929 56.8352 282.899 56.8352 282.899C56.8352 282.899 80.2061 303.996 80.7061 321.1Z" fill="#D0CDE1"/>
<path d="M57.742 342.248L65.7177 330.399L57.7583 343.523L57.7749 344.856C57.1926 344.861 56.616 344.851 56.0451 344.827L56.4407 327.688L56.4298 327.556L56.4444 327.531L56.4823 325.911L47.7479 313.242L56.472 324.699L56.5029 325.041L56.8017 312.092L49.2576 298.958L56.8232 309.818L56.7442 282.991L56.7444 282.901L56.747 282.989L57.2478 304.132L64.1234 295.544L57.2703 305.954L57.4203 317.536L63.7473 306.232L57.4436 319.239L57.5271 325.68L66.7282 309.933L57.5551 327.927L57.742 342.248Z" fill="#3F3D56"/>
<path d="M427.982 321.1C428.482 338.205 418.477 344.474 405.922 344.84C405.63 344.849 405.34 344.854 405.051 344.856C404.469 344.861 403.892 344.851 403.321 344.827C391.966 344.356 382.977 338.334 382.512 322.426C382.031 305.963 402.486 284.573 404.02 282.991L404.023 282.989C404.081 282.929 404.111 282.899 404.111 282.899C404.111 282.899 427.482 303.996 427.982 321.1Z" fill="#D0CDE1"/>
<path d="M405.018 342.248L412.994 330.399L405.034 343.523L405.051 344.856C404.469 344.861 403.892 344.851 403.321 344.827L403.717 327.688L403.706 327.556L403.72 327.531L403.758 325.911L395.024 313.242L403.748 324.699L403.779 325.041L404.078 312.092L396.534 298.958L404.099 309.818L404.02 282.991L404.02 282.901L404.023 282.989L404.524 304.132L411.399 295.544L404.546 305.954L404.696 317.536L411.023 306.232L404.72 319.239L404.803 325.68L414.004 309.933L404.831 327.927L405.018 342.248Z" fill="#3F3D56"/>
</svg>
