<svg width="55" height="55" viewBox="0 0 55 55" fill="none" xmlns="http://www.w3.org/2000/svg">
<g clip-path="url(#clip0)">
<path d="M49.2708 3.4375H5.72917C4.2097 3.4375 2.75246 4.04111 1.67803 5.11553C0.603607 6.18996 0 7.6472 0 9.16667L0 36.6667C0 38.1861 0.603607 39.6434 1.67803 40.7178C2.75246 41.7922 4.2097 42.3958 5.72917 42.3958H20.625C20.6007 43.3054 20.3592 44.1961 19.9207 44.9934C19.4822 45.7907 18.8593 46.4715 18.1042 46.9792L14.2542 49.4542C14.0449 49.5893 13.8853 49.7889 13.7997 50.0228C13.714 50.2567 13.7069 50.5122 13.7794 50.7505C13.8519 50.9888 14.0002 51.197 14.2016 51.3435C14.4031 51.49 14.6468 51.5669 14.8958 51.5625H40.1042C40.3532 51.5669 40.5969 51.49 40.7984 51.3435C40.9998 51.197 41.1481 50.9888 41.2206 50.7505C41.2931 50.5122 41.286 50.2567 41.2003 50.0228C41.1147 49.7889 40.9551 49.5893 40.7458 49.4542L36.9417 46.9104C36.1865 46.4028 35.5637 45.7219 35.1251 44.9246C34.6866 44.1273 34.4451 43.2367 34.4208 42.3271H49.2708C50.7785 42.3272 52.2254 41.733 53.2979 40.6734C54.3703 39.6138 54.9819 38.1742 55 36.6667V9.16667C55 8.4143 54.8518 7.6693 54.5639 6.97421C54.276 6.27911 53.854 5.64754 53.322 5.11553C52.79 4.58353 52.1584 4.16152 51.4633 3.87361C50.7682 3.58569 50.0232 3.4375 49.2708 3.4375ZM35.6583 48.8354L36.3229 49.2708H18.6771L19.3417 48.8354C20.41 48.1271 21.2924 47.1723 21.9146 46.0516C22.5367 44.931 22.8804 43.6771 22.9167 42.3958H32.0833C32.1196 43.6771 32.4633 44.931 33.0854 46.0516C33.7076 47.1723 34.59 48.1271 35.6583 48.8354ZM52.7083 36.6667C52.7083 37.5784 52.3462 38.4527 51.7015 39.0973C51.0569 39.742 50.1825 40.1042 49.2708 40.1042H5.72917C4.81749 40.1042 3.94314 39.742 3.29849 39.0973C2.65383 38.4527 2.29167 37.5784 2.29167 36.6667V35.5208H52.7083V36.6667ZM52.7083 33.2292H2.29167V9.16667C2.29167 8.25499 2.65383 7.38064 3.29849 6.73599C3.94314 6.09133 4.81749 5.72917 5.72917 5.72917H49.2708C50.1825 5.72917 51.0569 6.09133 51.7015 6.73599C52.3462 7.38064 52.7083 8.25499 52.7083 9.16667V33.2292Z" fill="#05CE64"/>
</g>
<defs>
<clipPath id="clip0">
<rect width="55" height="55" rx="8" fill="white"/>
</clipPath>
</defs>
</svg>
