<svg width="61" height="61" viewBox="0 0 61 61" fill="none" xmlns="http://www.w3.org/2000/svg">
<path d="M53.375 7.625H7.625C5.52812 7.625 3.8125 9.34062 3.8125 11.4375V49.5625C3.8125 51.6594 5.52812 53.375 7.625 53.375H53.375C55.4719 53.375 57.1875 51.6594 57.1875 49.5625V11.4375C57.1875 9.34062 55.4719 7.625 53.375 7.625ZM55.2812 49.5625C55.2812 50.7062 54.5187 51.4688 53.375 51.4688H7.625C6.48125 51.4688 5.71875 50.7062 5.71875 49.5625V19.0625H55.2812V49.5625ZM55.2812 17.1562H5.71875V11.4375C5.71875 10.2938 6.48125 9.53125 7.625 9.53125H53.375C54.5187 9.53125 55.2812 10.2938 55.2812 11.4375V17.1562Z" fill="#05CE64"/>
<path d="M22.875 13.3438C22.875 13.8493 23.0758 14.3342 23.4333 14.6917C23.7908 15.0492 24.2757 15.25 24.7812 15.25C25.2868 15.25 25.7717 15.0492 26.1292 14.6917C26.4867 14.3342 26.6875 13.8493 26.6875 13.3438C26.6875 12.8382 26.4867 12.3533 26.1292 11.9958C25.7717 11.6383 25.2868 11.4375 24.7812 11.4375C24.2757 11.4375 23.7908 11.6383 23.4333 11.9958C23.0758 12.3533 22.875 12.8382 22.875 13.3438Z" fill="#05CE64"/>
<path d="M15.25 13.3438C15.25 13.8493 15.4508 14.3342 15.8083 14.6917C16.1658 15.0492 16.6507 15.25 17.1562 15.25C17.6618 15.25 18.1467 15.0492 18.5042 14.6917C18.8617 14.3342 19.0625 13.8493 19.0625 13.3438C19.0625 12.8382 18.8617 12.3533 18.5042 11.9958C18.1467 11.6383 17.6618 11.4375 17.1562 11.4375C16.6507 11.4375 16.1658 11.6383 15.8083 11.9958C15.4508 12.3533 15.25 12.8382 15.25 13.3438Z" fill="#05CE64"/>
<path d="M7.625 13.3438C7.625 13.8493 7.82584 14.3342 8.18333 14.6917C8.54082 15.0492 9.02568 15.25 9.53125 15.25C10.0368 15.25 10.5217 15.0492 10.8792 14.6917C11.2367 14.3342 11.4375 13.8493 11.4375 13.3438C11.4375 12.8382 11.2367 12.3533 10.8792 11.9958C10.5217 11.6383 10.0368 11.4375 9.53125 11.4375C9.02568 11.4375 8.54082 11.6383 8.18333 11.9958C7.82584 12.3533 7.625 12.8382 7.625 13.3438Z" fill="#05CE64"/>
<path d="M26.6151 45.1114L32.5464 23.0208L34.3868 23.5145L28.4555 45.6061L26.6151 45.1114ZM24.1284 42.4007L16.0392 34.3125L24.1274 26.2252L22.7778 24.8765L13.3438 34.3125L22.7797 43.7484L24.1284 42.4007ZM36.8716 42.4007L38.2222 43.7484L47.6562 34.3125L38.2203 24.8765L36.8716 26.2233L44.9608 34.3125L36.8716 42.4007Z" fill="#05CE64"/>
</svg>
