<svg width="58" height="58" viewBox="0 0 58 58" fill="none" xmlns="http://www.w3.org/2000/svg">
<path d="M53.8182 12.7047L44.8635 3.74996C44.5261 3.41261 43.9798 3.41261 43.6425 3.74996L27.7105 19.6814L18.0925 10.2183C18.0851 10.2108 18.0753 10.2057 18.0672 10.1988C18.0355 10.17 18.0016 10.1441 17.9653 10.1199C17.948 10.1084 17.9319 10.0957 17.9141 10.0853C17.8715 10.0612 17.826 10.0422 17.7788 10.0249C17.7667 10.0209 17.7563 10.0134 17.7443 10.0094L4.71771 5.93928C4.4126 5.84429 4.07698 5.92604 3.84958 6.15286C3.62219 6.38025 3.53987 6.71472 3.63601 7.02099L7.70666 20.047C7.73141 20.1258 7.7694 20.1984 7.81488 20.2663C7.82928 20.2882 7.84655 20.306 7.86267 20.3262C7.88397 20.3526 7.90124 20.3814 7.92542 20.405L17.5336 29.8583L3.74999 43.6424C3.41264 43.9798 3.41264 44.5261 3.74999 44.8635L12.7053 53.8194C12.8671 53.9811 13.087 54.0721 13.3161 54.0721C13.5452 54.0721 13.7646 53.9811 13.9269 53.8194L27.8527 39.8936L39.1199 50.8437C39.2638 50.9824 39.4446 51.0497 39.6294 51.0699C40.9362 52.2817 42.6218 52.9524 44.4145 52.9524C46.2981 52.9524 48.0695 52.219 49.401 50.8868C52.1142 48.1736 52.1447 43.7841 49.5029 41.0265C49.4609 40.8832 49.3861 40.7508 49.2767 40.6454L37.9766 29.7691L53.8188 13.9263C54.1556 13.5884 54.1556 13.042 53.8182 12.7047ZM16.419 11.4054L15.7737 13.5987L12.7652 14.4836C12.4837 14.5665 12.2632 14.7864 12.1803 15.0685L11.296 18.0764L9.10211 18.7217L5.77639 8.07967L16.419 11.4054ZM13.3155 51.9875L5.58124 44.2527L8.83499 40.9989L12.7019 44.8658C12.8705 45.0344 13.0916 45.1185 13.3127 45.1185C13.5337 45.1185 13.7548 45.0344 13.9235 44.8658C14.2608 44.5284 14.2608 43.9821 13.9235 43.6447L10.0566 39.7779L13.2251 36.6093L17.092 40.4762C17.2607 40.6449 17.4817 40.7289 17.7028 40.7289C17.9239 40.7289 18.1449 40.6449 18.3136 40.4762C18.651 40.1388 18.651 39.5925 18.3136 39.2552L14.4467 35.3883L18.7695 31.0655L26.6144 38.6898L13.3155 51.9875ZM48.1783 49.6652C46.2457 51.5966 43.1883 51.7285 41.0997 50.0653L48.579 42.5861C50.2421 44.6752 50.1103 47.7338 48.1783 49.6652ZM39.7123 49.0113L19.309 29.1819L10.1832 20.2035L12.2355 19.6002C12.5171 19.5173 12.7375 19.2974 12.8204 19.0153L13.7053 16.0074L16.7138 15.1226C16.9953 15.0397 17.2158 14.8198 17.2987 14.5377L17.9101 12.46L36.1281 30.3845L47.4454 41.2787L39.7123 49.0113ZM36.7383 28.5647L28.9413 20.8926L33.3735 16.4605L37.2403 20.3273C37.409 20.496 37.63 20.58 37.8511 20.58C38.0722 20.58 38.2932 20.496 38.4619 20.3273C38.7993 19.9905 38.7993 19.4431 38.4619 19.1063L34.5951 15.2394L38.1954 11.6391L42.0622 15.506C42.2309 15.6746 42.452 15.7587 42.673 15.7587C42.8941 15.7587 43.1151 15.6746 43.2838 15.506C43.6212 15.1692 43.6212 14.6217 43.2838 14.2849L39.417 10.4181L44.2538 5.58121L51.987 13.3155L36.7383 28.5647Z" fill="#05CE64"/>
</svg>
