<svg width="55" height="55" viewBox="0 0 55 55" fill="none" xmlns="http://www.w3.org/2000/svg">
<path d="M50.6217 1.5097H4.37735C1.96379 1.5097 0 3.47317 0 5.88706V12.249C0 12.7434 0.400793 13.1441 0.895043 13.1441C1.3894 13.1441 1.79009 12.7433 1.79009 12.249V5.88706C1.79009 4.46038 2.95078 3.29979 4.37735 3.29979H50.6216C52.0489 3.29979 53.21 4.46049 53.21 5.88706V36.4392H49.7229V25.3737C49.7229 23.6367 48.3097 22.2236 46.5728 22.2236H33.54C31.803 22.2236 30.39 23.6368 30.39 25.3737V42.4577H4.37735C2.95078 42.4577 1.79009 41.297 1.79009 39.8704V38.2295H28.3015C28.7958 38.2295 29.1965 37.8288 29.1965 37.3345C29.1965 36.8401 28.7957 36.4395 28.3015 36.4395H1.79009V15.2326C1.79009 14.7382 1.38929 14.3375 0.895043 14.3375C0.400793 14.3375 0 14.7383 0 15.2326V39.8703C0 42.2841 1.96379 44.2477 4.37735 44.2477H19.7159L17.5142 49.3983H13.2144C12.7201 49.3983 12.3194 49.7991 12.3194 50.2934C12.3194 50.7878 12.7202 51.1884 13.2144 51.1884H18.105H28.0798H28.1991C28.6935 51.1884 29.0941 50.7876 29.0941 50.2934C29.0941 49.799 28.6934 49.3983 28.1991 49.3983H28.0798H19.4609L20.9907 45.8194H30.3899V50.3403C30.3899 52.0774 31.803 53.4904 33.5399 53.4904H46.5727C48.3097 53.4904 49.7228 52.0773 49.7228 50.3403V38.2293H53.2099V39.8702C53.2099 40.9123 52.5892 41.8482 51.6287 42.2546C51.1734 42.4472 50.9604 42.9722 51.153 43.4275C51.2974 43.7691 51.6289 43.9742 51.9778 43.9742C52.094 43.9742 52.2123 43.9514 52.326 43.9033C53.9504 43.2162 55 41.6332 55 39.8703V5.88706C55.0002 3.47317 53.036 1.5097 50.6217 1.5097ZM32.1799 25.3737C32.18 24.6238 32.79 24.0137 33.5399 24.0137H46.5727C47.3226 24.0137 47.9327 24.6238 47.9327 25.3737V46.2109H32.1799V25.3737ZM47.9329 50.3406C47.9329 51.0904 47.3229 51.7005 46.5728 51.7005H33.54C32.7901 51.7005 32.1801 51.0905 32.1801 50.3406V48.001H47.9329V50.3406Z" fill="#05CE64"/>
<path d="M28.2439 39.634C27.8156 38.9842 26.7715 39.1911 26.622 39.9563C26.5498 40.3258 26.7223 40.7128 27.0476 40.9028C27.3726 41.0924 27.7952 41.0557 28.0811 40.8109C28.4227 40.5185 28.4905 40.0085 28.2439 39.634Z" fill="#05CE64"/>
<path d="M40.8832 49.5082C40.741 49.1711 40.4021 48.9468 40.0345 48.9562C39.6679 48.9656 39.338 49.2043 39.2145 49.5491C39.0885 49.9011 39.2001 50.3047 39.4888 50.5423C39.7894 50.7898 40.2287 50.8102 40.5527 50.5954C40.9063 50.3608 41.0399 49.8995 40.8832 49.5082Z" fill="#05CE64"/>
<path d="M42.5029 25.0878H37.6099C37.1156 25.0878 36.7149 25.4886 36.7149 25.9828C36.7149 26.4772 37.1157 26.8779 37.6099 26.8779H42.5029C42.9973 26.8779 43.398 26.4771 43.398 25.9828C43.398 25.4885 42.9973 25.0878 42.5029 25.0878Z" fill="#05CE64"/>
</svg>
