<svg width="52" height="50" viewBox="0 0 52 50" fill="none" xmlns="http://www.w3.org/2000/svg">
<g clip-path="url(#clip0)">
<path d="M44.4235 7.26603C39.5352 2.58319 33.0352 0.00285711 26.1099 0C11.8393 0 0.225879 11.1141 0.220166 24.7748C0.218503 29.1415 1.41035 33.4041 3.67573 37.1614L0.00280762 50L13.7273 46.5549C17.5086 48.5291 21.7662 49.5694 26.0988 49.571H26.1098H26.1099C40.3782 49.571 51.9934 38.455 51.9995 24.7949C52.0018 18.1743 49.3112 11.9492 44.4235 7.26603ZM26.1099 45.3865H26.1015C22.2396 45.3845 18.4525 44.392 15.1493 42.5155L14.3631 42.0694L6.21876 44.1136L8.39319 36.5147L7.88101 35.7356C5.72682 32.4566 4.58959 28.6673 4.59121 24.7764C4.59594 13.422 14.2486 4.18472 26.1181 4.18472C31.8659 4.18701 37.2682 6.33179 41.3312 10.224C45.3939 14.1162 47.6297 19.2904 47.628 24.7931C47.623 36.1479 37.97 45.3865 26.1099 45.3865Z" fill="#BBB4CC"/>
<path d="M1.1902 48.5756L4.69535 36.3235C2.53289 32.7377 1.39571 28.6696 1.39707 24.5031C1.40274 11.4667 12.4858 0.860596 26.1033 0.860596C32.7126 0.863453 38.9158 3.32579 43.5797 7.79483C48.2447 12.2638 50.8122 18.2041 50.8095 24.5216C50.8039 37.5584 39.7202 48.1654 26.1043 48.1654C26.1033 48.1654 26.105 48.1654 26.1043 48.1654H26.0933C21.9586 48.1642 17.8958 47.1706 14.2875 45.2879L1.1902 48.5756Z" fill="#202020"/>
<path fill-rule="evenodd" clip-rule="evenodd" d="M19.7112 14.2566C19.2322 13.2372 18.7279 13.2168 18.2722 13.1989C17.8995 13.1836 17.4728 13.1846 17.0468 13.1846C16.6204 13.1846 15.9276 13.338 15.3417 13.9505C14.7554 14.5631 13.1033 16.0439 13.1033 19.0557C13.1033 22.0678 15.395 24.9781 15.7144 25.3869C16.0342 25.7951 20.1382 32.1732 26.6379 34.6269C32.0397 36.6661 33.1389 36.2605 34.3114 36.1584C35.4839 36.0564 38.0947 34.6779 38.6276 33.2484C39.1606 31.8192 39.1606 30.5941 39.0007 30.338C38.8408 30.0829 38.4144 29.9299 37.7749 29.6238C37.1354 29.3176 33.9916 27.8365 33.4054 27.6324C32.8191 27.4283 32.3928 27.3263 31.9664 27.9392C31.5401 28.5514 30.3153 29.9299 29.9422 30.338C29.5691 30.7471 29.1961 30.7981 28.5565 30.492C27.917 30.185 25.8574 29.5392 23.4142 27.4538C21.5133 25.8314 20.2298 23.8275 19.8568 23.2147C19.4837 22.6025 19.8168 22.2708 20.1376 21.9656C20.4247 21.6914 20.7771 21.251 21.0969 20.8936C21.416 20.5361 21.5226 20.281 21.7357 19.8729C21.9489 19.4641 21.8423 19.1066 21.6824 18.8005C21.5226 18.4944 20.2798 15.4671 19.7112 14.2566Z" fill="#BBB4CC"/>
<path d="M44.2108 7.18752C39.3786 2.55844 32.9533 0.00778073 26.1076 0.00488281C12.0007 0.00488281 0.520654 10.9914 0.514983 24.4953C0.51332 28.8119 1.69148 33.0255 3.93085 36.7397L0.30014 49.4309L13.867 46.0253C17.605 47.9768 21.8137 49.0052 26.0966 49.0068H26.1074H26.1076C40.2121 49.0068 51.6938 38.0184 51.6998 24.515C51.7021 17.9705 49.0424 11.8169 44.2108 7.18752ZM26.1076 44.8704H26.0992C22.2817 44.8685 18.538 43.8873 15.2727 42.0324L14.4956 41.5914L6.44471 43.6121L8.59416 36.1004L8.08786 35.3303C5.9584 32.089 4.83422 28.3432 4.83588 24.4969C4.84053 13.2729 14.3823 4.14164 26.1156 4.14164C31.7975 4.14389 37.1377 6.26407 41.1541 10.1116C45.1702 13.9591 47.3803 19.0739 47.3786 24.5135C47.3736 35.7378 37.8314 44.8704 26.1076 44.8704Z" fill="#BBB4CC"/>
</g>
<defs>
<clipPath id="clip0">
<rect width="52" height="50" fill="white"/>
</clipPath>
</defs>
</svg>
